%TF.GenerationSoftware,KiCad,Pcbnew,(5.1.10)-1*%
%TF.CreationDate,2022-06-29T18:38:16+09:00*%
%TF.ProjectId,DUB_with_Tono(ver1.0),4455425f-7769-4746-985f-546f6e6f2876,rev?*%
%TF.SameCoordinates,Original*%
%TF.FileFunction,Paste,Bot*%
%TF.FilePolarity,Positive*%
%FSLAX46Y46*%
G04 Gerber Fmt 4.6, Leading zero omitted, Abs format (unit mm)*
G04 Created by KiCad (PCBNEW (5.1.10)-1) date 2022-06-29 18:38:16*
%MOMM*%
%LPD*%
G01*
G04 APERTURE LIST*
%ADD10R,2.000000X5.300000*%
%ADD11R,1.651000X6.000000*%
G04 APERTURE END LIST*
D10*
%TO.C,DUB1*%
X117841100Y-97878600D03*
X120381100Y-97878600D03*
X122921100Y-97878600D03*
X125461100Y-97878600D03*
X128001100Y-97878600D03*
X130541100Y-97878600D03*
X133081100Y-97878600D03*
X135621100Y-97878600D03*
X138161100Y-97878600D03*
X140701100Y-97878600D03*
X143241100Y-97878600D03*
X145781100Y-97878600D03*
X148321100Y-97878600D03*
X150861100Y-97878600D03*
X153401100Y-97878600D03*
X155941100Y-97878600D03*
X158481100Y-97878600D03*
X161021100Y-97878600D03*
X163561100Y-97878600D03*
X166101100Y-97878600D03*
X168641100Y-97878600D03*
X171181100Y-97878600D03*
X173721100Y-97878600D03*
X176261100Y-97878600D03*
X178801100Y-97878600D03*
%TD*%
D11*
%TO.C,\u9060\u91CE1*%
X130898900Y-111734600D03*
X133438900Y-111734600D03*
X135978900Y-111734600D03*
X138518900Y-111734600D03*
X141058900Y-111734600D03*
X143598900Y-111734600D03*
X146138900Y-111734600D03*
X148678900Y-111734600D03*
X151218900Y-111734600D03*
X153758900Y-111734600D03*
X156298900Y-111734600D03*
X158838900Y-111734600D03*
X161378900Y-111734600D03*
X163918900Y-111734600D03*
X166458900Y-111734600D03*
X168998900Y-111734600D03*
X171538900Y-111734600D03*
X174078900Y-111734600D03*
X176618900Y-111734600D03*
X179158900Y-111734600D03*
%TD*%
M02*
