%TF.GenerationSoftware,KiCad,Pcbnew,(5.1.10)-1*%
%TF.CreationDate,2022-06-29T17:52:34+09:00*%
%TF.ProjectId,DUB_with_Tono(ver1.0),4455425f-7769-4746-985f-546f6e6f2876,rev?*%
%TF.SameCoordinates,Original*%
%TF.FileFunction,Legend,Top*%
%TF.FilePolarity,Positive*%
%FSLAX46Y46*%
G04 Gerber Fmt 4.6, Leading zero omitted, Abs format (unit mm)*
G04 Created by KiCad (PCBNEW (5.1.10)-1) date 2022-06-29 17:52:34*
%MOMM*%
%LPD*%
G01*
G04 APERTURE LIST*
%ADD10C,0.100000*%
%ADD11C,0.200000*%
%ADD12C,0.300000*%
%ADD13C,0.010000*%
%ADD14C,0.120000*%
G04 APERTURE END LIST*
D10*
X176626266Y-107449480D02*
X176792933Y-107916146D01*
X176959600Y-107449480D01*
X177492933Y-107882813D02*
X177426266Y-107916146D01*
X177292933Y-107916146D01*
X177226266Y-107882813D01*
X177192933Y-107816146D01*
X177192933Y-107549480D01*
X177226266Y-107482813D01*
X177292933Y-107449480D01*
X177426266Y-107449480D01*
X177492933Y-107482813D01*
X177526266Y-107549480D01*
X177526266Y-107616146D01*
X177192933Y-107682813D01*
X177826266Y-107916146D02*
X177826266Y-107449480D01*
X177826266Y-107582813D02*
X177859600Y-107516146D01*
X177892933Y-107482813D01*
X177959600Y-107449480D01*
X178026266Y-107449480D01*
X179159600Y-107916146D02*
X178759600Y-107916146D01*
X178959600Y-107916146D02*
X178959600Y-107216146D01*
X178892933Y-107316146D01*
X178826266Y-107382813D01*
X178759600Y-107416146D01*
X179459600Y-107849480D02*
X179492933Y-107882813D01*
X179459600Y-107916146D01*
X179426266Y-107882813D01*
X179459600Y-107849480D01*
X179459600Y-107916146D01*
X179926266Y-107216146D02*
X179992933Y-107216146D01*
X180059600Y-107249480D01*
X180092933Y-107282813D01*
X180126266Y-107349480D01*
X180159600Y-107482813D01*
X180159600Y-107649480D01*
X180126266Y-107782813D01*
X180092933Y-107849480D01*
X180059600Y-107882813D01*
X179992933Y-107916146D01*
X179926266Y-107916146D01*
X179859600Y-107882813D01*
X179826266Y-107849480D01*
X179792933Y-107782813D01*
X179759600Y-107649480D01*
X179759600Y-107482813D01*
X179792933Y-107349480D01*
X179826266Y-107282813D01*
X179859600Y-107249480D01*
X179926266Y-107216146D01*
D11*
X147740295Y-104290548D02*
X147954581Y-105623881D01*
X148454581Y-104671500D01*
X148716486Y-105623881D01*
X149264105Y-104290548D01*
X149859343Y-105623881D02*
X150026010Y-104290548D01*
X150109343Y-103623881D02*
X150002200Y-103719120D01*
X150085533Y-103814358D01*
X150192676Y-103719120D01*
X150109343Y-103623881D01*
X150085533Y-103814358D01*
X150692676Y-104290548D02*
X151454581Y-104290548D01*
X151061724Y-103623881D02*
X150847438Y-105338167D01*
X150918867Y-105528643D01*
X151097438Y-105623881D01*
X151287914Y-105623881D01*
X151954581Y-105623881D02*
X152204581Y-103623881D01*
X152811724Y-105623881D02*
X152942676Y-104576262D01*
X152871248Y-104385786D01*
X152692676Y-104290548D01*
X152406962Y-104290548D01*
X152204581Y-104385786D01*
X152097438Y-104481024D01*
X134741873Y-105079337D02*
X134947230Y-105150765D01*
X135009730Y-105222194D01*
X135063302Y-105365051D01*
X135036516Y-105579337D01*
X134947230Y-105722194D01*
X134866873Y-105793622D01*
X134715087Y-105865051D01*
X134143659Y-105865051D01*
X134331159Y-104365051D01*
X134831159Y-104365051D01*
X134965087Y-104436480D01*
X135027587Y-104507908D01*
X135081159Y-104650765D01*
X135063302Y-104793622D01*
X134974016Y-104936480D01*
X134893659Y-105007908D01*
X134741873Y-105079337D01*
X134241873Y-105079337D01*
X136724016Y-105793622D02*
X136857945Y-105865051D01*
X137143659Y-105865051D01*
X137295445Y-105793622D01*
X137384730Y-105650765D01*
X137393659Y-105579337D01*
X137340087Y-105436480D01*
X137206159Y-105365051D01*
X136991873Y-105365051D01*
X136857945Y-105293622D01*
X136804373Y-105150765D01*
X136813302Y-105079337D01*
X136902587Y-104936480D01*
X137054373Y-104865051D01*
X137268659Y-104865051D01*
X137402587Y-104936480D01*
X138581159Y-105793622D02*
X138429373Y-105865051D01*
X138143659Y-105865051D01*
X138009730Y-105793622D01*
X137956159Y-105650765D01*
X138027587Y-105079337D01*
X138116873Y-104936480D01*
X138268659Y-104865051D01*
X138554373Y-104865051D01*
X138688302Y-104936480D01*
X138741873Y-105079337D01*
X138724016Y-105222194D01*
X137991873Y-105365051D01*
X139286516Y-105865051D02*
X139411516Y-104865051D01*
X139375802Y-105150765D02*
X139465087Y-105007908D01*
X139545445Y-104936480D01*
X139697230Y-104865051D01*
X139840087Y-104865051D01*
X140215087Y-105865051D02*
X140340087Y-104865051D01*
X140402587Y-104365051D02*
X140322230Y-104436480D01*
X140384730Y-104507908D01*
X140465087Y-104436480D01*
X140402587Y-104365051D01*
X140384730Y-104507908D01*
X141509730Y-105793622D02*
X141357945Y-105865051D01*
X141072230Y-105865051D01*
X140938302Y-105793622D01*
X140884730Y-105650765D01*
X140956159Y-105079337D01*
X141045445Y-104936480D01*
X141197230Y-104865051D01*
X141482945Y-104865051D01*
X141616873Y-104936480D01*
X141670445Y-105079337D01*
X141652587Y-105222194D01*
X140920445Y-105365051D01*
X142152587Y-105793622D02*
X142286516Y-105865051D01*
X142572230Y-105865051D01*
X142724016Y-105793622D01*
X142813302Y-105650765D01*
X142822230Y-105579337D01*
X142768659Y-105436480D01*
X142634730Y-105365051D01*
X142420445Y-105365051D01*
X142286516Y-105293622D01*
X142232945Y-105150765D01*
X142241873Y-105079337D01*
X142331159Y-104936480D01*
X142482945Y-104865051D01*
X142697230Y-104865051D01*
X142831159Y-104936480D01*
D12*
X131717614Y-103581721D02*
X131967614Y-101581721D01*
X132443805Y-101581721D01*
X132717614Y-101676960D01*
X132884281Y-101867436D01*
X132955709Y-102057912D01*
X133003328Y-102438864D01*
X132967614Y-102724579D01*
X132824757Y-103105531D01*
X132705709Y-103296007D01*
X132491424Y-103486483D01*
X132193805Y-103581721D01*
X131717614Y-103581721D01*
X133717614Y-103581721D02*
X133884281Y-102248388D01*
X133836662Y-102629340D02*
X133955709Y-102438864D01*
X134062852Y-102343626D01*
X134265233Y-102248388D01*
X134455709Y-102248388D01*
X134955709Y-103581721D02*
X135122376Y-102248388D01*
X135205709Y-101581721D02*
X135098566Y-101676960D01*
X135181900Y-101772198D01*
X135289043Y-101676960D01*
X135205709Y-101581721D01*
X135181900Y-101772198D01*
X135884281Y-102248388D02*
X136193805Y-103581721D01*
X136836662Y-102248388D01*
X138205709Y-103486483D02*
X138003328Y-103581721D01*
X137622376Y-103581721D01*
X137443805Y-103486483D01*
X137372376Y-103296007D01*
X137467614Y-102534102D01*
X137586662Y-102343626D01*
X137789043Y-102248388D01*
X138169995Y-102248388D01*
X138348566Y-102343626D01*
X138419995Y-102534102D01*
X138396185Y-102724579D01*
X137419995Y-102915055D01*
X139396185Y-101581721D02*
X139193805Y-103200769D01*
X139265233Y-103391245D01*
X139348566Y-103486483D01*
X139527138Y-103581721D01*
X139908090Y-103581721D01*
X140110471Y-103486483D01*
X140217614Y-103391245D01*
X140336662Y-103200769D01*
X140539043Y-101581721D01*
X141408090Y-102248388D02*
X141241424Y-103581721D01*
X141384281Y-102438864D02*
X141491424Y-102343626D01*
X141693805Y-102248388D01*
X141979519Y-102248388D01*
X142158090Y-102343626D01*
X142229519Y-102534102D01*
X142098566Y-103581721D01*
X143050947Y-103581721D02*
X143217614Y-102248388D01*
X143300947Y-101581721D02*
X143193805Y-101676960D01*
X143277138Y-101772198D01*
X143384281Y-101676960D01*
X143300947Y-101581721D01*
X143277138Y-101772198D01*
X143884281Y-102248388D02*
X144646185Y-102248388D01*
X144253328Y-101581721D02*
X144039043Y-103296007D01*
X144110471Y-103486483D01*
X144289043Y-103581721D01*
X144479519Y-103581721D01*
D10*
X128536700Y-108305600D02*
X181521100Y-108305600D01*
D13*
%TO.C,G\u002A\u002A\u002A*%
G36*
X124749074Y-103183784D02*
G01*
X124924008Y-103184126D01*
X125100436Y-103184748D01*
X125272381Y-103185637D01*
X125433868Y-103186777D01*
X125515370Y-103187500D01*
X126175770Y-103193850D01*
X126179521Y-103264955D01*
X126179714Y-103290460D01*
X126177007Y-103318503D01*
X126170493Y-103352526D01*
X126159262Y-103395972D01*
X126142406Y-103452283D01*
X126119017Y-103524904D01*
X126088186Y-103617275D01*
X126080647Y-103639605D01*
X126052160Y-103724313D01*
X126026177Y-103802437D01*
X126003891Y-103870318D01*
X125986495Y-103924298D01*
X125975183Y-103960717D01*
X125971368Y-103974505D01*
X125960804Y-104005634D01*
X125950957Y-104022437D01*
X125942306Y-104039857D01*
X125943669Y-104045482D01*
X125954026Y-104039703D01*
X125974551Y-104018199D01*
X125997326Y-103990074D01*
X126061519Y-103924523D01*
X126143297Y-103869382D01*
X126235887Y-103827862D01*
X126332514Y-103803176D01*
X126403166Y-103797638D01*
X126522173Y-103809638D01*
X126630050Y-103843444D01*
X126725129Y-103898354D01*
X126797366Y-103964099D01*
X126825436Y-103998481D01*
X126854610Y-104039266D01*
X126881570Y-104081050D01*
X126903002Y-104118427D01*
X126915589Y-104145991D01*
X126916398Y-104158120D01*
X126898591Y-104166956D01*
X126870930Y-104177499D01*
X126843593Y-104186263D01*
X126826757Y-104189758D01*
X126825322Y-104189334D01*
X126817453Y-104176451D01*
X126801202Y-104148619D01*
X126787956Y-104125595D01*
X126742191Y-104062222D01*
X126682794Y-104003686D01*
X126617409Y-103956559D01*
X126559647Y-103929296D01*
X126459554Y-103908368D01*
X126358841Y-103910129D01*
X126262082Y-103933488D01*
X126173849Y-103977354D01*
X126100414Y-104038811D01*
X126047265Y-104103098D01*
X126012577Y-104165727D01*
X125993276Y-104234697D01*
X125986291Y-104318006D01*
X125986102Y-104336412D01*
X125986792Y-104393572D01*
X125990361Y-104434337D01*
X125998794Y-104467697D01*
X126014075Y-104502643D01*
X126029171Y-104531490D01*
X126086458Y-104616833D01*
X126156618Y-104681774D01*
X126242343Y-104728277D01*
X126337695Y-104756550D01*
X126428242Y-104763185D01*
X126525960Y-104747577D01*
X126603628Y-104720707D01*
X126649775Y-104694269D01*
X126698173Y-104655828D01*
X126741493Y-104612260D01*
X126772403Y-104570437D01*
X126779703Y-104555605D01*
X126801551Y-104509266D01*
X126823198Y-104485244D01*
X126848135Y-104480727D01*
X126865964Y-104486139D01*
X126896684Y-104501156D01*
X126910078Y-104516778D01*
X126907202Y-104539379D01*
X126889115Y-104575335D01*
X126882633Y-104586652D01*
X126813232Y-104685508D01*
X126730872Y-104763009D01*
X126633509Y-104820730D01*
X126533198Y-104856580D01*
X126466353Y-104869227D01*
X126396716Y-104873324D01*
X126332544Y-104869017D01*
X126282091Y-104856453D01*
X126272399Y-104851938D01*
X126242105Y-104840194D01*
X126215182Y-104833477D01*
X126181632Y-104820598D01*
X126137504Y-104794725D01*
X126090059Y-104760949D01*
X126046557Y-104724359D01*
X126019035Y-104695965D01*
X125993469Y-104666402D01*
X125972202Y-104643146D01*
X125969730Y-104640624D01*
X125952722Y-104615990D01*
X125931839Y-104575280D01*
X125910694Y-104526688D01*
X125892903Y-104478408D01*
X125883351Y-104444800D01*
X125877645Y-104405562D01*
X125874336Y-104355840D01*
X125873971Y-104330500D01*
X125874539Y-104260650D01*
X125840908Y-104362250D01*
X125824275Y-104410865D01*
X125809576Y-104450925D01*
X125799325Y-104475665D01*
X125797442Y-104479170D01*
X125779832Y-104488454D01*
X125759662Y-104482090D01*
X125750320Y-104464693D01*
X125754170Y-104450835D01*
X125765074Y-104415826D01*
X125782062Y-104362614D01*
X125804164Y-104294148D01*
X125830411Y-104213376D01*
X125859831Y-104123245D01*
X125891456Y-104026705D01*
X125924314Y-103926704D01*
X125957437Y-103826189D01*
X125989855Y-103728110D01*
X126020596Y-103635414D01*
X126048692Y-103551049D01*
X126073172Y-103477965D01*
X126093067Y-103419109D01*
X126107407Y-103377430D01*
X126114530Y-103357638D01*
X126113069Y-103353165D01*
X126103521Y-103349489D01*
X126083771Y-103346538D01*
X126051708Y-103344236D01*
X126005220Y-103342511D01*
X125942192Y-103341289D01*
X125860513Y-103340496D01*
X125758070Y-103340059D01*
X125632749Y-103339903D01*
X125605628Y-103339900D01*
X125089920Y-103339900D01*
X125089920Y-104897605D01*
X125188345Y-104912344D01*
X125248851Y-104920847D01*
X125321135Y-104930195D01*
X125391706Y-104938658D01*
X125406902Y-104940366D01*
X125462617Y-104946928D01*
X125511272Y-104953383D01*
X125545556Y-104958730D01*
X125554884Y-104960639D01*
X125574860Y-104961420D01*
X125586115Y-104946608D01*
X125591773Y-104925289D01*
X125603559Y-104881981D01*
X125618039Y-104841026D01*
X125631530Y-104813925D01*
X125644803Y-104806718D01*
X125660335Y-104812519D01*
X125673881Y-104820985D01*
X125679008Y-104831859D01*
X125675746Y-104851877D01*
X125664124Y-104887776D01*
X125660712Y-104897706D01*
X125647615Y-104936245D01*
X125638662Y-104963491D01*
X125636020Y-104972549D01*
X125647628Y-104975099D01*
X125678266Y-104978993D01*
X125721651Y-104983445D01*
X125728095Y-104984042D01*
X125781818Y-104989529D01*
X125849819Y-104997290D01*
X125921220Y-105006056D01*
X125957131Y-105010731D01*
X126013201Y-105018141D01*
X126059313Y-105024107D01*
X126090062Y-105027938D01*
X126100006Y-105029000D01*
X126105410Y-105039054D01*
X126105140Y-105060354D01*
X126100069Y-105079599D01*
X126096395Y-105084083D01*
X126079514Y-105085331D01*
X126046083Y-105082440D01*
X126017020Y-105078234D01*
X125983226Y-105073247D01*
X125934844Y-105066927D01*
X125876979Y-105059848D01*
X125814736Y-105052582D01*
X125753219Y-105045704D01*
X125697534Y-105039787D01*
X125652786Y-105035403D01*
X125624079Y-105033127D01*
X125616097Y-105033202D01*
X125611971Y-105045322D01*
X125601042Y-105077781D01*
X125584568Y-105126831D01*
X125563808Y-105188727D01*
X125540021Y-105259720D01*
X125538604Y-105263950D01*
X125514007Y-105337063D01*
X125491649Y-105402897D01*
X125472974Y-105457254D01*
X125459424Y-105495932D01*
X125452442Y-105514733D01*
X125452424Y-105514775D01*
X125447515Y-105533938D01*
X125454983Y-105535620D01*
X125470985Y-105521889D01*
X125491681Y-105494810D01*
X125492842Y-105493032D01*
X125528497Y-105450904D01*
X125580093Y-105405843D01*
X125639762Y-105363759D01*
X125699632Y-105330558D01*
X125721935Y-105321065D01*
X125830503Y-105292622D01*
X125939640Y-105287713D01*
X126046148Y-105304755D01*
X126146826Y-105342165D01*
X126238474Y-105398359D01*
X126317891Y-105471752D01*
X126381879Y-105560761D01*
X126427236Y-105663802D01*
X126429566Y-105671286D01*
X126440533Y-105710278D01*
X126447455Y-105740342D01*
X126448682Y-105749725D01*
X126443495Y-105753997D01*
X126426546Y-105757484D01*
X126395871Y-105760251D01*
X126349509Y-105762365D01*
X126285498Y-105763891D01*
X126201875Y-105764895D01*
X126096679Y-105765442D01*
X125975110Y-105765600D01*
X125832547Y-105765965D01*
X125714281Y-105767057D01*
X125620529Y-105768870D01*
X125551504Y-105771398D01*
X125507422Y-105774635D01*
X125488499Y-105778575D01*
X125488096Y-105778903D01*
X125483414Y-105797879D01*
X125484459Y-105834374D01*
X125490180Y-105881426D01*
X125499527Y-105932077D01*
X125511448Y-105979365D01*
X125523489Y-106013250D01*
X125552087Y-106059588D01*
X125595761Y-106109821D01*
X125646909Y-106156408D01*
X125697926Y-106191810D01*
X125709915Y-106198099D01*
X125748481Y-106216709D01*
X125780098Y-106231947D01*
X125790670Y-106237032D01*
X125825547Y-106245835D01*
X125876856Y-106249449D01*
X125936207Y-106248057D01*
X125995204Y-106241844D01*
X126043737Y-106231507D01*
X126082363Y-106216571D01*
X126126816Y-106194177D01*
X126171218Y-106168018D01*
X126209693Y-106141785D01*
X126236365Y-106119170D01*
X126245427Y-106104810D01*
X126252652Y-106087933D01*
X126269684Y-106060803D01*
X126290061Y-106032672D01*
X126307319Y-106012792D01*
X126312374Y-106008990D01*
X126316353Y-105996672D01*
X126314454Y-105992556D01*
X126315298Y-105974286D01*
X126327368Y-105949191D01*
X126351966Y-105925422D01*
X126388505Y-105918030D01*
X126391962Y-105918000D01*
X126418791Y-105919909D01*
X126432338Y-105928787D01*
X126433730Y-105949354D01*
X126424094Y-105986334D01*
X126414914Y-106014162D01*
X126370354Y-106107660D01*
X126306006Y-106189402D01*
X126225561Y-106257322D01*
X126132712Y-106309353D01*
X126031151Y-106343428D01*
X125924569Y-106357479D01*
X125816659Y-106349440D01*
X125816240Y-106349363D01*
X125707107Y-106317264D01*
X125609886Y-106265041D01*
X125526988Y-106195339D01*
X125460824Y-106110802D01*
X125413802Y-106014077D01*
X125388336Y-105907809D01*
X125385386Y-105876543D01*
X125381152Y-105817690D01*
X125377085Y-105781992D01*
X125372697Y-105767210D01*
X125367504Y-105771108D01*
X125364361Y-105779657D01*
X125337248Y-105864846D01*
X125303922Y-105967716D01*
X125266463Y-106081941D01*
X125226950Y-106201195D01*
X125187463Y-106319149D01*
X125171761Y-106365675D01*
X125086885Y-106616500D01*
X124848715Y-106616500D01*
X124846866Y-105677960D01*
X125089920Y-105677960D01*
X125090003Y-105811011D01*
X125090243Y-105936016D01*
X125090626Y-106050750D01*
X125091134Y-106152987D01*
X125091754Y-106240501D01*
X125092470Y-106311066D01*
X125093266Y-106362457D01*
X125094129Y-106392449D01*
X125094853Y-106399541D01*
X125100193Y-106386355D01*
X125112052Y-106352902D01*
X125129098Y-106303073D01*
X125149999Y-106240758D01*
X125172719Y-106172000D01*
X125197075Y-106098390D01*
X125219833Y-106030740D01*
X125239389Y-105973729D01*
X125254138Y-105932041D01*
X125261910Y-105911650D01*
X125271821Y-105885998D01*
X125286044Y-105846357D01*
X125302126Y-105799939D01*
X125317611Y-105753955D01*
X125330045Y-105715618D01*
X125336972Y-105692138D01*
X125337562Y-105689400D01*
X125341814Y-105675597D01*
X125347850Y-105657242D01*
X125521720Y-105657242D01*
X125533910Y-105658908D01*
X125568447Y-105660425D01*
X125622277Y-105661741D01*
X125692344Y-105662802D01*
X125775597Y-105663557D01*
X125868980Y-105663952D01*
X125915420Y-105664000D01*
X126038677Y-105663655D01*
X126137543Y-105662598D01*
X126213016Y-105660794D01*
X126266095Y-105658208D01*
X126297779Y-105654804D01*
X126309067Y-105650548D01*
X126309120Y-105650201D01*
X126300525Y-105627118D01*
X126277919Y-105592822D01*
X126246065Y-105553204D01*
X126209729Y-105514155D01*
X126173677Y-105481567D01*
X126171053Y-105479498D01*
X126094117Y-105434615D01*
X126004819Y-105407172D01*
X125909867Y-105397831D01*
X125815967Y-105407252D01*
X125729939Y-105436042D01*
X125673632Y-105469375D01*
X125620316Y-105511689D01*
X125574471Y-105558223D01*
X125540578Y-105604216D01*
X125523119Y-105644909D01*
X125521720Y-105657242D01*
X125347850Y-105657242D01*
X125352652Y-105642644D01*
X125368454Y-105595430D01*
X125387593Y-105538839D01*
X125388219Y-105537000D01*
X125407663Y-105479444D01*
X125424022Y-105430368D01*
X125435590Y-105394935D01*
X125440661Y-105378311D01*
X125440675Y-105378250D01*
X125445583Y-105362196D01*
X125457135Y-105326794D01*
X125473780Y-105276735D01*
X125493963Y-105216712D01*
X125501616Y-105194100D01*
X125522354Y-105132810D01*
X125539831Y-105080941D01*
X125552594Y-105042819D01*
X125559191Y-105022769D01*
X125559779Y-105020786D01*
X125554332Y-105019375D01*
X125536420Y-105016528D01*
X125503743Y-105011936D01*
X125453997Y-105005288D01*
X125384880Y-104996274D01*
X125294091Y-104984583D01*
X125235970Y-104977142D01*
X125185204Y-104970208D01*
X125142342Y-104963555D01*
X125115196Y-104958414D01*
X125112145Y-104957619D01*
X125107427Y-104957352D01*
X125103427Y-104960817D01*
X125100085Y-104969923D01*
X125097343Y-104986578D01*
X125095141Y-105012690D01*
X125093421Y-105050169D01*
X125092125Y-105100923D01*
X125091192Y-105166859D01*
X125090564Y-105249887D01*
X125090183Y-105351914D01*
X125089989Y-105474850D01*
X125089923Y-105620603D01*
X125089920Y-105677960D01*
X124846866Y-105677960D01*
X124845492Y-104981375D01*
X124842270Y-103346250D01*
X124461270Y-103343203D01*
X124080270Y-103340157D01*
X124177571Y-103394003D01*
X124238793Y-103429051D01*
X124283885Y-103458620D01*
X124319651Y-103488151D01*
X124352893Y-103523081D01*
X124380071Y-103555854D01*
X124408778Y-103592658D01*
X124432822Y-103627081D01*
X124452594Y-103661706D01*
X124468486Y-103699117D01*
X124480890Y-103741898D01*
X124490196Y-103792632D01*
X124496797Y-103853902D01*
X124501084Y-103928294D01*
X124503448Y-104018389D01*
X124504283Y-104126771D01*
X124503978Y-104256025D01*
X124503236Y-104368428D01*
X124502222Y-104496345D01*
X124501209Y-104601175D01*
X124500075Y-104685235D01*
X124498700Y-104750837D01*
X124496963Y-104800297D01*
X124494743Y-104835928D01*
X124491919Y-104860045D01*
X124488370Y-104874961D01*
X124483976Y-104882991D01*
X124478614Y-104886450D01*
X124476140Y-104887078D01*
X124445384Y-104887570D01*
X124422165Y-104883832D01*
X124409082Y-104879646D01*
X124400343Y-104871892D01*
X124395050Y-104856062D01*
X124392302Y-104827650D01*
X124391200Y-104782148D01*
X124390887Y-104727133D01*
X124390536Y-104664077D01*
X124389595Y-104623267D01*
X124387429Y-104601547D01*
X124383403Y-104595763D01*
X124376881Y-104602759D01*
X124368662Y-104616822D01*
X124306305Y-104703141D01*
X124225621Y-104776388D01*
X124131551Y-104833674D01*
X124029036Y-104872113D01*
X123923017Y-104888820D01*
X123902263Y-104889300D01*
X123796264Y-104877027D01*
X123693727Y-104841913D01*
X123598488Y-104786513D01*
X123514384Y-104713384D01*
X123445249Y-104625081D01*
X123410594Y-104561705D01*
X123392023Y-104519236D01*
X123380389Y-104483564D01*
X123374108Y-104446144D01*
X123371596Y-104398435D01*
X123371400Y-104372090D01*
X123503889Y-104372090D01*
X123506836Y-104420160D01*
X123511060Y-104459644D01*
X123515673Y-104482346D01*
X123515901Y-104482900D01*
X123569034Y-104579091D01*
X123635609Y-104653899D01*
X123716172Y-104707822D01*
X123793519Y-104736932D01*
X123892196Y-104750748D01*
X123993071Y-104740624D01*
X124091382Y-104707047D01*
X124092970Y-104706292D01*
X124169684Y-104656778D01*
X124229369Y-104592153D01*
X124271956Y-104516214D01*
X124297378Y-104432757D01*
X124305566Y-104345579D01*
X124296454Y-104258475D01*
X124269972Y-104175243D01*
X124226052Y-104099679D01*
X124164628Y-104035579D01*
X124105670Y-103996585D01*
X124073826Y-103980073D01*
X124052471Y-103969634D01*
X124048520Y-103968027D01*
X124032436Y-103962516D01*
X124023120Y-103959006D01*
X123964021Y-103946147D01*
X123891501Y-103945199D01*
X123814067Y-103955260D01*
X123740228Y-103975427D01*
X123698251Y-103993495D01*
X123670582Y-104010876D01*
X123639337Y-104034782D01*
X123611487Y-104059290D01*
X123594001Y-104078473D01*
X123591320Y-104084386D01*
X123583614Y-104099873D01*
X123567510Y-104120131D01*
X123538796Y-104166419D01*
X123517545Y-104230458D01*
X123505525Y-104305245D01*
X123503889Y-104372090D01*
X123371400Y-104372090D01*
X123371231Y-104349550D01*
X123372134Y-104286987D01*
X123375694Y-104241502D01*
X123383336Y-104204801D01*
X123396490Y-104168590D01*
X123406109Y-104146925D01*
X123466805Y-104041884D01*
X123542153Y-103955456D01*
X123629469Y-103888483D01*
X123726068Y-103841806D01*
X123829265Y-103816267D01*
X123936375Y-103812706D01*
X124044714Y-103831966D01*
X124151597Y-103874886D01*
X124194794Y-103899783D01*
X124256062Y-103944886D01*
X124311892Y-103997658D01*
X124356009Y-104051562D01*
X124378773Y-104091393D01*
X124383858Y-104095543D01*
X124387000Y-104078750D01*
X124388269Y-104039728D01*
X124387738Y-103977195D01*
X124386983Y-103943150D01*
X124384973Y-103872066D01*
X124382417Y-103820764D01*
X124378301Y-103783631D01*
X124371613Y-103755053D01*
X124361340Y-103729416D01*
X124346470Y-103701106D01*
X124341820Y-103692783D01*
X124279478Y-103606926D01*
X124196552Y-103533108D01*
X124102600Y-103477178D01*
X124066932Y-103460600D01*
X124037576Y-103449839D01*
X124007662Y-103443866D01*
X123970323Y-103441653D01*
X123918689Y-103442171D01*
X123876985Y-103443397D01*
X123731020Y-103448031D01*
X123731020Y-103188014D01*
X124292995Y-103184582D01*
X124427591Y-103183998D01*
X124581610Y-103183736D01*
X124749074Y-103183784D01*
G37*
X124749074Y-103183784D02*
X124924008Y-103184126D01*
X125100436Y-103184748D01*
X125272381Y-103185637D01*
X125433868Y-103186777D01*
X125515370Y-103187500D01*
X126175770Y-103193850D01*
X126179521Y-103264955D01*
X126179714Y-103290460D01*
X126177007Y-103318503D01*
X126170493Y-103352526D01*
X126159262Y-103395972D01*
X126142406Y-103452283D01*
X126119017Y-103524904D01*
X126088186Y-103617275D01*
X126080647Y-103639605D01*
X126052160Y-103724313D01*
X126026177Y-103802437D01*
X126003891Y-103870318D01*
X125986495Y-103924298D01*
X125975183Y-103960717D01*
X125971368Y-103974505D01*
X125960804Y-104005634D01*
X125950957Y-104022437D01*
X125942306Y-104039857D01*
X125943669Y-104045482D01*
X125954026Y-104039703D01*
X125974551Y-104018199D01*
X125997326Y-103990074D01*
X126061519Y-103924523D01*
X126143297Y-103869382D01*
X126235887Y-103827862D01*
X126332514Y-103803176D01*
X126403166Y-103797638D01*
X126522173Y-103809638D01*
X126630050Y-103843444D01*
X126725129Y-103898354D01*
X126797366Y-103964099D01*
X126825436Y-103998481D01*
X126854610Y-104039266D01*
X126881570Y-104081050D01*
X126903002Y-104118427D01*
X126915589Y-104145991D01*
X126916398Y-104158120D01*
X126898591Y-104166956D01*
X126870930Y-104177499D01*
X126843593Y-104186263D01*
X126826757Y-104189758D01*
X126825322Y-104189334D01*
X126817453Y-104176451D01*
X126801202Y-104148619D01*
X126787956Y-104125595D01*
X126742191Y-104062222D01*
X126682794Y-104003686D01*
X126617409Y-103956559D01*
X126559647Y-103929296D01*
X126459554Y-103908368D01*
X126358841Y-103910129D01*
X126262082Y-103933488D01*
X126173849Y-103977354D01*
X126100414Y-104038811D01*
X126047265Y-104103098D01*
X126012577Y-104165727D01*
X125993276Y-104234697D01*
X125986291Y-104318006D01*
X125986102Y-104336412D01*
X125986792Y-104393572D01*
X125990361Y-104434337D01*
X125998794Y-104467697D01*
X126014075Y-104502643D01*
X126029171Y-104531490D01*
X126086458Y-104616833D01*
X126156618Y-104681774D01*
X126242343Y-104728277D01*
X126337695Y-104756550D01*
X126428242Y-104763185D01*
X126525960Y-104747577D01*
X126603628Y-104720707D01*
X126649775Y-104694269D01*
X126698173Y-104655828D01*
X126741493Y-104612260D01*
X126772403Y-104570437D01*
X126779703Y-104555605D01*
X126801551Y-104509266D01*
X126823198Y-104485244D01*
X126848135Y-104480727D01*
X126865964Y-104486139D01*
X126896684Y-104501156D01*
X126910078Y-104516778D01*
X126907202Y-104539379D01*
X126889115Y-104575335D01*
X126882633Y-104586652D01*
X126813232Y-104685508D01*
X126730872Y-104763009D01*
X126633509Y-104820730D01*
X126533198Y-104856580D01*
X126466353Y-104869227D01*
X126396716Y-104873324D01*
X126332544Y-104869017D01*
X126282091Y-104856453D01*
X126272399Y-104851938D01*
X126242105Y-104840194D01*
X126215182Y-104833477D01*
X126181632Y-104820598D01*
X126137504Y-104794725D01*
X126090059Y-104760949D01*
X126046557Y-104724359D01*
X126019035Y-104695965D01*
X125993469Y-104666402D01*
X125972202Y-104643146D01*
X125969730Y-104640624D01*
X125952722Y-104615990D01*
X125931839Y-104575280D01*
X125910694Y-104526688D01*
X125892903Y-104478408D01*
X125883351Y-104444800D01*
X125877645Y-104405562D01*
X125874336Y-104355840D01*
X125873971Y-104330500D01*
X125874539Y-104260650D01*
X125840908Y-104362250D01*
X125824275Y-104410865D01*
X125809576Y-104450925D01*
X125799325Y-104475665D01*
X125797442Y-104479170D01*
X125779832Y-104488454D01*
X125759662Y-104482090D01*
X125750320Y-104464693D01*
X125754170Y-104450835D01*
X125765074Y-104415826D01*
X125782062Y-104362614D01*
X125804164Y-104294148D01*
X125830411Y-104213376D01*
X125859831Y-104123245D01*
X125891456Y-104026705D01*
X125924314Y-103926704D01*
X125957437Y-103826189D01*
X125989855Y-103728110D01*
X126020596Y-103635414D01*
X126048692Y-103551049D01*
X126073172Y-103477965D01*
X126093067Y-103419109D01*
X126107407Y-103377430D01*
X126114530Y-103357638D01*
X126113069Y-103353165D01*
X126103521Y-103349489D01*
X126083771Y-103346538D01*
X126051708Y-103344236D01*
X126005220Y-103342511D01*
X125942192Y-103341289D01*
X125860513Y-103340496D01*
X125758070Y-103340059D01*
X125632749Y-103339903D01*
X125605628Y-103339900D01*
X125089920Y-103339900D01*
X125089920Y-104897605D01*
X125188345Y-104912344D01*
X125248851Y-104920847D01*
X125321135Y-104930195D01*
X125391706Y-104938658D01*
X125406902Y-104940366D01*
X125462617Y-104946928D01*
X125511272Y-104953383D01*
X125545556Y-104958730D01*
X125554884Y-104960639D01*
X125574860Y-104961420D01*
X125586115Y-104946608D01*
X125591773Y-104925289D01*
X125603559Y-104881981D01*
X125618039Y-104841026D01*
X125631530Y-104813925D01*
X125644803Y-104806718D01*
X125660335Y-104812519D01*
X125673881Y-104820985D01*
X125679008Y-104831859D01*
X125675746Y-104851877D01*
X125664124Y-104887776D01*
X125660712Y-104897706D01*
X125647615Y-104936245D01*
X125638662Y-104963491D01*
X125636020Y-104972549D01*
X125647628Y-104975099D01*
X125678266Y-104978993D01*
X125721651Y-104983445D01*
X125728095Y-104984042D01*
X125781818Y-104989529D01*
X125849819Y-104997290D01*
X125921220Y-105006056D01*
X125957131Y-105010731D01*
X126013201Y-105018141D01*
X126059313Y-105024107D01*
X126090062Y-105027938D01*
X126100006Y-105029000D01*
X126105410Y-105039054D01*
X126105140Y-105060354D01*
X126100069Y-105079599D01*
X126096395Y-105084083D01*
X126079514Y-105085331D01*
X126046083Y-105082440D01*
X126017020Y-105078234D01*
X125983226Y-105073247D01*
X125934844Y-105066927D01*
X125876979Y-105059848D01*
X125814736Y-105052582D01*
X125753219Y-105045704D01*
X125697534Y-105039787D01*
X125652786Y-105035403D01*
X125624079Y-105033127D01*
X125616097Y-105033202D01*
X125611971Y-105045322D01*
X125601042Y-105077781D01*
X125584568Y-105126831D01*
X125563808Y-105188727D01*
X125540021Y-105259720D01*
X125538604Y-105263950D01*
X125514007Y-105337063D01*
X125491649Y-105402897D01*
X125472974Y-105457254D01*
X125459424Y-105495932D01*
X125452442Y-105514733D01*
X125452424Y-105514775D01*
X125447515Y-105533938D01*
X125454983Y-105535620D01*
X125470985Y-105521889D01*
X125491681Y-105494810D01*
X125492842Y-105493032D01*
X125528497Y-105450904D01*
X125580093Y-105405843D01*
X125639762Y-105363759D01*
X125699632Y-105330558D01*
X125721935Y-105321065D01*
X125830503Y-105292622D01*
X125939640Y-105287713D01*
X126046148Y-105304755D01*
X126146826Y-105342165D01*
X126238474Y-105398359D01*
X126317891Y-105471752D01*
X126381879Y-105560761D01*
X126427236Y-105663802D01*
X126429566Y-105671286D01*
X126440533Y-105710278D01*
X126447455Y-105740342D01*
X126448682Y-105749725D01*
X126443495Y-105753997D01*
X126426546Y-105757484D01*
X126395871Y-105760251D01*
X126349509Y-105762365D01*
X126285498Y-105763891D01*
X126201875Y-105764895D01*
X126096679Y-105765442D01*
X125975110Y-105765600D01*
X125832547Y-105765965D01*
X125714281Y-105767057D01*
X125620529Y-105768870D01*
X125551504Y-105771398D01*
X125507422Y-105774635D01*
X125488499Y-105778575D01*
X125488096Y-105778903D01*
X125483414Y-105797879D01*
X125484459Y-105834374D01*
X125490180Y-105881426D01*
X125499527Y-105932077D01*
X125511448Y-105979365D01*
X125523489Y-106013250D01*
X125552087Y-106059588D01*
X125595761Y-106109821D01*
X125646909Y-106156408D01*
X125697926Y-106191810D01*
X125709915Y-106198099D01*
X125748481Y-106216709D01*
X125780098Y-106231947D01*
X125790670Y-106237032D01*
X125825547Y-106245835D01*
X125876856Y-106249449D01*
X125936207Y-106248057D01*
X125995204Y-106241844D01*
X126043737Y-106231507D01*
X126082363Y-106216571D01*
X126126816Y-106194177D01*
X126171218Y-106168018D01*
X126209693Y-106141785D01*
X126236365Y-106119170D01*
X126245427Y-106104810D01*
X126252652Y-106087933D01*
X126269684Y-106060803D01*
X126290061Y-106032672D01*
X126307319Y-106012792D01*
X126312374Y-106008990D01*
X126316353Y-105996672D01*
X126314454Y-105992556D01*
X126315298Y-105974286D01*
X126327368Y-105949191D01*
X126351966Y-105925422D01*
X126388505Y-105918030D01*
X126391962Y-105918000D01*
X126418791Y-105919909D01*
X126432338Y-105928787D01*
X126433730Y-105949354D01*
X126424094Y-105986334D01*
X126414914Y-106014162D01*
X126370354Y-106107660D01*
X126306006Y-106189402D01*
X126225561Y-106257322D01*
X126132712Y-106309353D01*
X126031151Y-106343428D01*
X125924569Y-106357479D01*
X125816659Y-106349440D01*
X125816240Y-106349363D01*
X125707107Y-106317264D01*
X125609886Y-106265041D01*
X125526988Y-106195339D01*
X125460824Y-106110802D01*
X125413802Y-106014077D01*
X125388336Y-105907809D01*
X125385386Y-105876543D01*
X125381152Y-105817690D01*
X125377085Y-105781992D01*
X125372697Y-105767210D01*
X125367504Y-105771108D01*
X125364361Y-105779657D01*
X125337248Y-105864846D01*
X125303922Y-105967716D01*
X125266463Y-106081941D01*
X125226950Y-106201195D01*
X125187463Y-106319149D01*
X125171761Y-106365675D01*
X125086885Y-106616500D01*
X124848715Y-106616500D01*
X124846866Y-105677960D01*
X125089920Y-105677960D01*
X125090003Y-105811011D01*
X125090243Y-105936016D01*
X125090626Y-106050750D01*
X125091134Y-106152987D01*
X125091754Y-106240501D01*
X125092470Y-106311066D01*
X125093266Y-106362457D01*
X125094129Y-106392449D01*
X125094853Y-106399541D01*
X125100193Y-106386355D01*
X125112052Y-106352902D01*
X125129098Y-106303073D01*
X125149999Y-106240758D01*
X125172719Y-106172000D01*
X125197075Y-106098390D01*
X125219833Y-106030740D01*
X125239389Y-105973729D01*
X125254138Y-105932041D01*
X125261910Y-105911650D01*
X125271821Y-105885998D01*
X125286044Y-105846357D01*
X125302126Y-105799939D01*
X125317611Y-105753955D01*
X125330045Y-105715618D01*
X125336972Y-105692138D01*
X125337562Y-105689400D01*
X125341814Y-105675597D01*
X125347850Y-105657242D01*
X125521720Y-105657242D01*
X125533910Y-105658908D01*
X125568447Y-105660425D01*
X125622277Y-105661741D01*
X125692344Y-105662802D01*
X125775597Y-105663557D01*
X125868980Y-105663952D01*
X125915420Y-105664000D01*
X126038677Y-105663655D01*
X126137543Y-105662598D01*
X126213016Y-105660794D01*
X126266095Y-105658208D01*
X126297779Y-105654804D01*
X126309067Y-105650548D01*
X126309120Y-105650201D01*
X126300525Y-105627118D01*
X126277919Y-105592822D01*
X126246065Y-105553204D01*
X126209729Y-105514155D01*
X126173677Y-105481567D01*
X126171053Y-105479498D01*
X126094117Y-105434615D01*
X126004819Y-105407172D01*
X125909867Y-105397831D01*
X125815967Y-105407252D01*
X125729939Y-105436042D01*
X125673632Y-105469375D01*
X125620316Y-105511689D01*
X125574471Y-105558223D01*
X125540578Y-105604216D01*
X125523119Y-105644909D01*
X125521720Y-105657242D01*
X125347850Y-105657242D01*
X125352652Y-105642644D01*
X125368454Y-105595430D01*
X125387593Y-105538839D01*
X125388219Y-105537000D01*
X125407663Y-105479444D01*
X125424022Y-105430368D01*
X125435590Y-105394935D01*
X125440661Y-105378311D01*
X125440675Y-105378250D01*
X125445583Y-105362196D01*
X125457135Y-105326794D01*
X125473780Y-105276735D01*
X125493963Y-105216712D01*
X125501616Y-105194100D01*
X125522354Y-105132810D01*
X125539831Y-105080941D01*
X125552594Y-105042819D01*
X125559191Y-105022769D01*
X125559779Y-105020786D01*
X125554332Y-105019375D01*
X125536420Y-105016528D01*
X125503743Y-105011936D01*
X125453997Y-105005288D01*
X125384880Y-104996274D01*
X125294091Y-104984583D01*
X125235970Y-104977142D01*
X125185204Y-104970208D01*
X125142342Y-104963555D01*
X125115196Y-104958414D01*
X125112145Y-104957619D01*
X125107427Y-104957352D01*
X125103427Y-104960817D01*
X125100085Y-104969923D01*
X125097343Y-104986578D01*
X125095141Y-105012690D01*
X125093421Y-105050169D01*
X125092125Y-105100923D01*
X125091192Y-105166859D01*
X125090564Y-105249887D01*
X125090183Y-105351914D01*
X125089989Y-105474850D01*
X125089923Y-105620603D01*
X125089920Y-105677960D01*
X124846866Y-105677960D01*
X124845492Y-104981375D01*
X124842270Y-103346250D01*
X124461270Y-103343203D01*
X124080270Y-103340157D01*
X124177571Y-103394003D01*
X124238793Y-103429051D01*
X124283885Y-103458620D01*
X124319651Y-103488151D01*
X124352893Y-103523081D01*
X124380071Y-103555854D01*
X124408778Y-103592658D01*
X124432822Y-103627081D01*
X124452594Y-103661706D01*
X124468486Y-103699117D01*
X124480890Y-103741898D01*
X124490196Y-103792632D01*
X124496797Y-103853902D01*
X124501084Y-103928294D01*
X124503448Y-104018389D01*
X124504283Y-104126771D01*
X124503978Y-104256025D01*
X124503236Y-104368428D01*
X124502222Y-104496345D01*
X124501209Y-104601175D01*
X124500075Y-104685235D01*
X124498700Y-104750837D01*
X124496963Y-104800297D01*
X124494743Y-104835928D01*
X124491919Y-104860045D01*
X124488370Y-104874961D01*
X124483976Y-104882991D01*
X124478614Y-104886450D01*
X124476140Y-104887078D01*
X124445384Y-104887570D01*
X124422165Y-104883832D01*
X124409082Y-104879646D01*
X124400343Y-104871892D01*
X124395050Y-104856062D01*
X124392302Y-104827650D01*
X124391200Y-104782148D01*
X124390887Y-104727133D01*
X124390536Y-104664077D01*
X124389595Y-104623267D01*
X124387429Y-104601547D01*
X124383403Y-104595763D01*
X124376881Y-104602759D01*
X124368662Y-104616822D01*
X124306305Y-104703141D01*
X124225621Y-104776388D01*
X124131551Y-104833674D01*
X124029036Y-104872113D01*
X123923017Y-104888820D01*
X123902263Y-104889300D01*
X123796264Y-104877027D01*
X123693727Y-104841913D01*
X123598488Y-104786513D01*
X123514384Y-104713384D01*
X123445249Y-104625081D01*
X123410594Y-104561705D01*
X123392023Y-104519236D01*
X123380389Y-104483564D01*
X123374108Y-104446144D01*
X123371596Y-104398435D01*
X123371400Y-104372090D01*
X123503889Y-104372090D01*
X123506836Y-104420160D01*
X123511060Y-104459644D01*
X123515673Y-104482346D01*
X123515901Y-104482900D01*
X123569034Y-104579091D01*
X123635609Y-104653899D01*
X123716172Y-104707822D01*
X123793519Y-104736932D01*
X123892196Y-104750748D01*
X123993071Y-104740624D01*
X124091382Y-104707047D01*
X124092970Y-104706292D01*
X124169684Y-104656778D01*
X124229369Y-104592153D01*
X124271956Y-104516214D01*
X124297378Y-104432757D01*
X124305566Y-104345579D01*
X124296454Y-104258475D01*
X124269972Y-104175243D01*
X124226052Y-104099679D01*
X124164628Y-104035579D01*
X124105670Y-103996585D01*
X124073826Y-103980073D01*
X124052471Y-103969634D01*
X124048520Y-103968027D01*
X124032436Y-103962516D01*
X124023120Y-103959006D01*
X123964021Y-103946147D01*
X123891501Y-103945199D01*
X123814067Y-103955260D01*
X123740228Y-103975427D01*
X123698251Y-103993495D01*
X123670582Y-104010876D01*
X123639337Y-104034782D01*
X123611487Y-104059290D01*
X123594001Y-104078473D01*
X123591320Y-104084386D01*
X123583614Y-104099873D01*
X123567510Y-104120131D01*
X123538796Y-104166419D01*
X123517545Y-104230458D01*
X123505525Y-104305245D01*
X123503889Y-104372090D01*
X123371400Y-104372090D01*
X123371231Y-104349550D01*
X123372134Y-104286987D01*
X123375694Y-104241502D01*
X123383336Y-104204801D01*
X123396490Y-104168590D01*
X123406109Y-104146925D01*
X123466805Y-104041884D01*
X123542153Y-103955456D01*
X123629469Y-103888483D01*
X123726068Y-103841806D01*
X123829265Y-103816267D01*
X123936375Y-103812706D01*
X124044714Y-103831966D01*
X124151597Y-103874886D01*
X124194794Y-103899783D01*
X124256062Y-103944886D01*
X124311892Y-103997658D01*
X124356009Y-104051562D01*
X124378773Y-104091393D01*
X124383858Y-104095543D01*
X124387000Y-104078750D01*
X124388269Y-104039728D01*
X124387738Y-103977195D01*
X124386983Y-103943150D01*
X124384973Y-103872066D01*
X124382417Y-103820764D01*
X124378301Y-103783631D01*
X124371613Y-103755053D01*
X124361340Y-103729416D01*
X124346470Y-103701106D01*
X124341820Y-103692783D01*
X124279478Y-103606926D01*
X124196552Y-103533108D01*
X124102600Y-103477178D01*
X124066932Y-103460600D01*
X124037576Y-103449839D01*
X124007662Y-103443866D01*
X123970323Y-103441653D01*
X123918689Y-103442171D01*
X123876985Y-103443397D01*
X123731020Y-103448031D01*
X123731020Y-103188014D01*
X124292995Y-103184582D01*
X124427591Y-103183998D01*
X124581610Y-103183736D01*
X124749074Y-103183784D01*
G36*
X127401320Y-105446720D02*
G01*
X127474345Y-105405613D01*
X127565011Y-105362297D01*
X127658542Y-105331401D01*
X127747934Y-105314754D01*
X127825092Y-105314062D01*
X127951048Y-105339800D01*
X128065608Y-105386788D01*
X128166709Y-105453097D01*
X128252288Y-105536800D01*
X128320282Y-105635970D01*
X128368627Y-105748679D01*
X128391063Y-105842840D01*
X128394720Y-105878218D01*
X128398003Y-105934593D01*
X128400773Y-106007560D01*
X128402891Y-106092718D01*
X128404217Y-106185664D01*
X128404620Y-106271465D01*
X128404620Y-106616500D01*
X128176020Y-106616500D01*
X128175764Y-106283125D01*
X128175375Y-106161361D01*
X128174137Y-106061830D01*
X128171642Y-105981369D01*
X128167479Y-105916813D01*
X128161237Y-105864999D01*
X128152506Y-105822763D01*
X128140876Y-105786942D01*
X128125937Y-105754373D01*
X128107277Y-105721891D01*
X128101842Y-105713191D01*
X128068552Y-105665048D01*
X128036514Y-105631727D01*
X127996815Y-105604772D01*
X127975214Y-105593056D01*
X127896393Y-105563283D01*
X127811578Y-105550290D01*
X127726925Y-105553649D01*
X127648592Y-105572928D01*
X127582733Y-105607700D01*
X127565725Y-105621638D01*
X127539606Y-105641796D01*
X127519395Y-105651208D01*
X127518100Y-105651300D01*
X127503843Y-105659052D01*
X127502920Y-105663092D01*
X127494848Y-105681070D01*
X127485341Y-105692463D01*
X127469164Y-105713821D01*
X127448178Y-105747943D01*
X127438024Y-105766396D01*
X127429703Y-105782914D01*
X127423056Y-105799478D01*
X127417854Y-105819099D01*
X127413869Y-105844784D01*
X127410872Y-105879544D01*
X127408634Y-105926386D01*
X127406926Y-105988322D01*
X127405521Y-106068358D01*
X127404189Y-106169505D01*
X127403589Y-106219625D01*
X127398893Y-106616500D01*
X127291758Y-106616500D01*
X127231289Y-106614881D01*
X127194260Y-106609861D01*
X127178908Y-106601192D01*
X127178665Y-106600625D01*
X127177482Y-106585246D01*
X127176261Y-106546854D01*
X127175033Y-106487833D01*
X127173830Y-106410570D01*
X127172682Y-106317450D01*
X127171621Y-106210858D01*
X127170677Y-106093181D01*
X127169881Y-105966804D01*
X127169539Y-105898950D01*
X127166370Y-105213150D01*
X127109220Y-105209804D01*
X127075728Y-105206891D01*
X127023498Y-105201222D01*
X126958951Y-105193540D01*
X126888505Y-105184589D01*
X126867920Y-105181865D01*
X126793200Y-105172182D01*
X126718876Y-105163063D01*
X126652684Y-105155427D01*
X126602362Y-105150189D01*
X126594870Y-105149509D01*
X126534840Y-105143549D01*
X126495839Y-105137259D01*
X126473522Y-105129169D01*
X126463545Y-105117806D01*
X126461520Y-105104344D01*
X126470882Y-105083536D01*
X126483745Y-105079677D01*
X126512211Y-105081244D01*
X126561224Y-105085774D01*
X126626168Y-105092735D01*
X126702431Y-105101596D01*
X126785400Y-105111824D01*
X126870462Y-105122888D01*
X126934198Y-105131603D01*
X127000595Y-105140584D01*
X127060293Y-105148076D01*
X127107596Y-105153405D01*
X127136810Y-105155898D01*
X127140459Y-105156000D01*
X127172493Y-105156000D01*
X127175781Y-104492425D01*
X127179070Y-103828850D01*
X127290195Y-103825180D01*
X127401320Y-103821511D01*
X127401320Y-105446720D01*
G37*
X127401320Y-105446720D02*
X127474345Y-105405613D01*
X127565011Y-105362297D01*
X127658542Y-105331401D01*
X127747934Y-105314754D01*
X127825092Y-105314062D01*
X127951048Y-105339800D01*
X128065608Y-105386788D01*
X128166709Y-105453097D01*
X128252288Y-105536800D01*
X128320282Y-105635970D01*
X128368627Y-105748679D01*
X128391063Y-105842840D01*
X128394720Y-105878218D01*
X128398003Y-105934593D01*
X128400773Y-106007560D01*
X128402891Y-106092718D01*
X128404217Y-106185664D01*
X128404620Y-106271465D01*
X128404620Y-106616500D01*
X128176020Y-106616500D01*
X128175764Y-106283125D01*
X128175375Y-106161361D01*
X128174137Y-106061830D01*
X128171642Y-105981369D01*
X128167479Y-105916813D01*
X128161237Y-105864999D01*
X128152506Y-105822763D01*
X128140876Y-105786942D01*
X128125937Y-105754373D01*
X128107277Y-105721891D01*
X128101842Y-105713191D01*
X128068552Y-105665048D01*
X128036514Y-105631727D01*
X127996815Y-105604772D01*
X127975214Y-105593056D01*
X127896393Y-105563283D01*
X127811578Y-105550290D01*
X127726925Y-105553649D01*
X127648592Y-105572928D01*
X127582733Y-105607700D01*
X127565725Y-105621638D01*
X127539606Y-105641796D01*
X127519395Y-105651208D01*
X127518100Y-105651300D01*
X127503843Y-105659052D01*
X127502920Y-105663092D01*
X127494848Y-105681070D01*
X127485341Y-105692463D01*
X127469164Y-105713821D01*
X127448178Y-105747943D01*
X127438024Y-105766396D01*
X127429703Y-105782914D01*
X127423056Y-105799478D01*
X127417854Y-105819099D01*
X127413869Y-105844784D01*
X127410872Y-105879544D01*
X127408634Y-105926386D01*
X127406926Y-105988322D01*
X127405521Y-106068358D01*
X127404189Y-106169505D01*
X127403589Y-106219625D01*
X127398893Y-106616500D01*
X127291758Y-106616500D01*
X127231289Y-106614881D01*
X127194260Y-106609861D01*
X127178908Y-106601192D01*
X127178665Y-106600625D01*
X127177482Y-106585246D01*
X127176261Y-106546854D01*
X127175033Y-106487833D01*
X127173830Y-106410570D01*
X127172682Y-106317450D01*
X127171621Y-106210858D01*
X127170677Y-106093181D01*
X127169881Y-105966804D01*
X127169539Y-105898950D01*
X127166370Y-105213150D01*
X127109220Y-105209804D01*
X127075728Y-105206891D01*
X127023498Y-105201222D01*
X126958951Y-105193540D01*
X126888505Y-105184589D01*
X126867920Y-105181865D01*
X126793200Y-105172182D01*
X126718876Y-105163063D01*
X126652684Y-105155427D01*
X126602362Y-105150189D01*
X126594870Y-105149509D01*
X126534840Y-105143549D01*
X126495839Y-105137259D01*
X126473522Y-105129169D01*
X126463545Y-105117806D01*
X126461520Y-105104344D01*
X126470882Y-105083536D01*
X126483745Y-105079677D01*
X126512211Y-105081244D01*
X126561224Y-105085774D01*
X126626168Y-105092735D01*
X126702431Y-105101596D01*
X126785400Y-105111824D01*
X126870462Y-105122888D01*
X126934198Y-105131603D01*
X127000595Y-105140584D01*
X127060293Y-105148076D01*
X127107596Y-105153405D01*
X127136810Y-105155898D01*
X127140459Y-105156000D01*
X127172493Y-105156000D01*
X127175781Y-104492425D01*
X127179070Y-103828850D01*
X127290195Y-103825180D01*
X127401320Y-103821511D01*
X127401320Y-105446720D01*
G36*
X117728492Y-104517825D02*
G01*
X117705167Y-104560684D01*
X117685653Y-104595249D01*
X117673674Y-104614943D01*
X117672725Y-104616250D01*
X117661940Y-104633314D01*
X117643279Y-104665683D01*
X117621441Y-104705150D01*
X117599533Y-104744401D01*
X117581895Y-104774058D01*
X117572346Y-104787699D01*
X117572346Y-104787700D01*
X117561646Y-104802875D01*
X117549489Y-104825800D01*
X117534946Y-104853902D01*
X117512896Y-104893990D01*
X117493863Y-104927400D01*
X117470056Y-104968610D01*
X117449623Y-105004179D01*
X117439110Y-105022650D01*
X117423753Y-105048406D01*
X117401305Y-105084410D01*
X117390219Y-105101772D01*
X117370357Y-105133863D01*
X117357843Y-105156485D01*
X117355619Y-105162350D01*
X117349436Y-105176330D01*
X117333867Y-105203478D01*
X117325777Y-105216577D01*
X117304718Y-105251572D01*
X117277364Y-105299114D01*
X117249381Y-105349342D01*
X117247466Y-105352850D01*
X117223504Y-105395434D01*
X117203352Y-105428776D01*
X117190608Y-105446986D01*
X117189041Y-105448458D01*
X117176809Y-105464698D01*
X117168927Y-105481406D01*
X117150665Y-105521161D01*
X117125359Y-105566851D01*
X117096590Y-105613088D01*
X117067940Y-105654486D01*
X117042991Y-105685657D01*
X117025325Y-105701212D01*
X117022245Y-105702036D01*
X117003357Y-105700002D01*
X117000020Y-105697701D01*
X117006081Y-105683158D01*
X117022655Y-105651277D01*
X117047324Y-105606582D01*
X117068891Y-105568750D01*
X117092758Y-105526708D01*
X117120181Y-105477469D01*
X117132814Y-105454450D01*
X117154767Y-105415765D01*
X117174125Y-105384334D01*
X117182869Y-105371900D01*
X117200422Y-105345883D01*
X117214217Y-105321100D01*
X117231374Y-105288638D01*
X117258557Y-105239863D01*
X117296607Y-105173297D01*
X117346365Y-105087464D01*
X117387370Y-105017249D01*
X117420317Y-104960842D01*
X117451202Y-104907758D01*
X117476228Y-104864533D01*
X117489986Y-104840556D01*
X117514801Y-104797099D01*
X117540844Y-104751816D01*
X117543961Y-104746425D01*
X117569396Y-104702080D01*
X117595310Y-104656346D01*
X117598213Y-104651175D01*
X117619652Y-104613808D01*
X117647319Y-104566731D01*
X117668063Y-104532038D01*
X117690248Y-104493241D01*
X117705823Y-104462117D01*
X117711220Y-104446313D01*
X117722073Y-104435611D01*
X117742797Y-104432100D01*
X117774375Y-104432100D01*
X117728492Y-104517825D01*
G37*
X117728492Y-104517825D02*
X117705167Y-104560684D01*
X117685653Y-104595249D01*
X117673674Y-104614943D01*
X117672725Y-104616250D01*
X117661940Y-104633314D01*
X117643279Y-104665683D01*
X117621441Y-104705150D01*
X117599533Y-104744401D01*
X117581895Y-104774058D01*
X117572346Y-104787699D01*
X117572346Y-104787700D01*
X117561646Y-104802875D01*
X117549489Y-104825800D01*
X117534946Y-104853902D01*
X117512896Y-104893990D01*
X117493863Y-104927400D01*
X117470056Y-104968610D01*
X117449623Y-105004179D01*
X117439110Y-105022650D01*
X117423753Y-105048406D01*
X117401305Y-105084410D01*
X117390219Y-105101772D01*
X117370357Y-105133863D01*
X117357843Y-105156485D01*
X117355619Y-105162350D01*
X117349436Y-105176330D01*
X117333867Y-105203478D01*
X117325777Y-105216577D01*
X117304718Y-105251572D01*
X117277364Y-105299114D01*
X117249381Y-105349342D01*
X117247466Y-105352850D01*
X117223504Y-105395434D01*
X117203352Y-105428776D01*
X117190608Y-105446986D01*
X117189041Y-105448458D01*
X117176809Y-105464698D01*
X117168927Y-105481406D01*
X117150665Y-105521161D01*
X117125359Y-105566851D01*
X117096590Y-105613088D01*
X117067940Y-105654486D01*
X117042991Y-105685657D01*
X117025325Y-105701212D01*
X117022245Y-105702036D01*
X117003357Y-105700002D01*
X117000020Y-105697701D01*
X117006081Y-105683158D01*
X117022655Y-105651277D01*
X117047324Y-105606582D01*
X117068891Y-105568750D01*
X117092758Y-105526708D01*
X117120181Y-105477469D01*
X117132814Y-105454450D01*
X117154767Y-105415765D01*
X117174125Y-105384334D01*
X117182869Y-105371900D01*
X117200422Y-105345883D01*
X117214217Y-105321100D01*
X117231374Y-105288638D01*
X117258557Y-105239863D01*
X117296607Y-105173297D01*
X117346365Y-105087464D01*
X117387370Y-105017249D01*
X117420317Y-104960842D01*
X117451202Y-104907758D01*
X117476228Y-104864533D01*
X117489986Y-104840556D01*
X117514801Y-104797099D01*
X117540844Y-104751816D01*
X117543961Y-104746425D01*
X117569396Y-104702080D01*
X117595310Y-104656346D01*
X117598213Y-104651175D01*
X117619652Y-104613808D01*
X117647319Y-104566731D01*
X117668063Y-104532038D01*
X117690248Y-104493241D01*
X117705823Y-104462117D01*
X117711220Y-104446313D01*
X117722073Y-104435611D01*
X117742797Y-104432100D01*
X117774375Y-104432100D01*
X117728492Y-104517825D01*
G36*
X118892320Y-104437667D02*
G01*
X118886273Y-104452477D01*
X118870200Y-104483514D01*
X118847201Y-104525262D01*
X118820376Y-104572203D01*
X118792826Y-104618821D01*
X118767650Y-104659598D01*
X118767307Y-104660136D01*
X118741888Y-104702219D01*
X118710115Y-104758043D01*
X118677028Y-104818648D01*
X118660166Y-104850636D01*
X118633660Y-104900771D01*
X118610938Y-104942059D01*
X118594783Y-104969539D01*
X118588531Y-104978200D01*
X118574229Y-104995875D01*
X118550638Y-105033765D01*
X118519363Y-105089139D01*
X118482006Y-105159266D01*
X118480402Y-105162350D01*
X118448756Y-105220750D01*
X118412215Y-105284536D01*
X118382450Y-105333800D01*
X118321971Y-105433290D01*
X118264737Y-105534444D01*
X118217670Y-105622725D01*
X118192772Y-105666790D01*
X118173088Y-105691540D01*
X118154704Y-105701365D01*
X118146927Y-105702100D01*
X118124228Y-105699565D01*
X118117620Y-105695235D01*
X118124136Y-105681106D01*
X118139969Y-105656070D01*
X118141419Y-105653960D01*
X118177392Y-105598625D01*
X118216604Y-105531364D01*
X118262307Y-105446589D01*
X118264841Y-105441750D01*
X118287831Y-105399066D01*
X118306987Y-105365784D01*
X118318860Y-105347836D01*
X118320201Y-105346500D01*
X118330070Y-105332861D01*
X118347871Y-105302803D01*
X118369957Y-105262515D01*
X118372558Y-105257600D01*
X118394552Y-105216598D01*
X118412167Y-105185092D01*
X118421946Y-105169247D01*
X118422420Y-105168700D01*
X118431761Y-105154507D01*
X118447918Y-105126109D01*
X118455780Y-105111550D01*
X118470850Y-105084475D01*
X118496324Y-105040086D01*
X118529589Y-104982880D01*
X118568029Y-104917354D01*
X118607135Y-104851200D01*
X118648645Y-104780839D01*
X118687962Y-104713449D01*
X118722321Y-104653830D01*
X118748953Y-104606779D01*
X118764274Y-104578676D01*
X118785260Y-104540526D01*
X118803842Y-104510357D01*
X118812113Y-104499226D01*
X118828739Y-104473148D01*
X118835193Y-104457424D01*
X118847679Y-104442368D01*
X118868042Y-104432182D01*
X118886183Y-104430357D01*
X118892320Y-104437667D01*
G37*
X118892320Y-104437667D02*
X118886273Y-104452477D01*
X118870200Y-104483514D01*
X118847201Y-104525262D01*
X118820376Y-104572203D01*
X118792826Y-104618821D01*
X118767650Y-104659598D01*
X118767307Y-104660136D01*
X118741888Y-104702219D01*
X118710115Y-104758043D01*
X118677028Y-104818648D01*
X118660166Y-104850636D01*
X118633660Y-104900771D01*
X118610938Y-104942059D01*
X118594783Y-104969539D01*
X118588531Y-104978200D01*
X118574229Y-104995875D01*
X118550638Y-105033765D01*
X118519363Y-105089139D01*
X118482006Y-105159266D01*
X118480402Y-105162350D01*
X118448756Y-105220750D01*
X118412215Y-105284536D01*
X118382450Y-105333800D01*
X118321971Y-105433290D01*
X118264737Y-105534444D01*
X118217670Y-105622725D01*
X118192772Y-105666790D01*
X118173088Y-105691540D01*
X118154704Y-105701365D01*
X118146927Y-105702100D01*
X118124228Y-105699565D01*
X118117620Y-105695235D01*
X118124136Y-105681106D01*
X118139969Y-105656070D01*
X118141419Y-105653960D01*
X118177392Y-105598625D01*
X118216604Y-105531364D01*
X118262307Y-105446589D01*
X118264841Y-105441750D01*
X118287831Y-105399066D01*
X118306987Y-105365784D01*
X118318860Y-105347836D01*
X118320201Y-105346500D01*
X118330070Y-105332861D01*
X118347871Y-105302803D01*
X118369957Y-105262515D01*
X118372558Y-105257600D01*
X118394552Y-105216598D01*
X118412167Y-105185092D01*
X118421946Y-105169247D01*
X118422420Y-105168700D01*
X118431761Y-105154507D01*
X118447918Y-105126109D01*
X118455780Y-105111550D01*
X118470850Y-105084475D01*
X118496324Y-105040086D01*
X118529589Y-104982880D01*
X118568029Y-104917354D01*
X118607135Y-104851200D01*
X118648645Y-104780839D01*
X118687962Y-104713449D01*
X118722321Y-104653830D01*
X118748953Y-104606779D01*
X118764274Y-104578676D01*
X118785260Y-104540526D01*
X118803842Y-104510357D01*
X118812113Y-104499226D01*
X118828739Y-104473148D01*
X118835193Y-104457424D01*
X118847679Y-104442368D01*
X118868042Y-104432182D01*
X118886183Y-104430357D01*
X118892320Y-104437667D01*
G36*
X121910321Y-103815800D02*
G01*
X121963420Y-103819910D01*
X122014204Y-103827053D01*
X122056638Y-103836215D01*
X122084686Y-103846379D01*
X122092720Y-103854777D01*
X122086790Y-103869142D01*
X122076845Y-103886559D01*
X122067440Y-103908280D01*
X122075802Y-103921335D01*
X122078105Y-103922840D01*
X122084909Y-103933181D01*
X122081534Y-103953049D01*
X122066685Y-103987116D01*
X122052705Y-104014461D01*
X122030237Y-104056267D01*
X122011368Y-104089666D01*
X122000001Y-104107762D01*
X121999665Y-104108183D01*
X121989172Y-104124004D01*
X121969199Y-104156558D01*
X121942948Y-104200566D01*
X121922614Y-104235250D01*
X121882210Y-104299329D01*
X121849316Y-104339589D01*
X121823508Y-104356339D01*
X121804362Y-104349891D01*
X121793876Y-104329260D01*
X121783688Y-104306628D01*
X121763524Y-104268572D01*
X121736747Y-104221287D01*
X121718627Y-104190601D01*
X121689723Y-104141712D01*
X121665459Y-104099351D01*
X121649097Y-104069280D01*
X121644310Y-104059230D01*
X121632311Y-104041488D01*
X121615499Y-104043703D01*
X121591150Y-104066943D01*
X121575873Y-104086025D01*
X121548267Y-104124980D01*
X121526489Y-104164023D01*
X121505235Y-104213230D01*
X121495313Y-104239021D01*
X121486155Y-104285051D01*
X121484988Y-104345820D01*
X121491023Y-104412236D01*
X121503467Y-104475206D01*
X121519970Y-104522432D01*
X121545841Y-104570037D01*
X121573585Y-104609833D01*
X121599263Y-104637014D01*
X121618938Y-104646774D01*
X121621473Y-104646332D01*
X121633903Y-104633940D01*
X121655328Y-104604684D01*
X121682099Y-104563729D01*
X121696628Y-104540010D01*
X121731779Y-104485057D01*
X121759193Y-104451077D01*
X121780949Y-104435616D01*
X121786191Y-104434289D01*
X121814883Y-104430128D01*
X121785526Y-104479220D01*
X121763697Y-104515552D01*
X121744946Y-104546480D01*
X121740806Y-104553231D01*
X121703876Y-104615144D01*
X121681014Y-104658554D01*
X121671268Y-104685440D01*
X121672066Y-104696071D01*
X121696017Y-104715039D01*
X121738761Y-104731900D01*
X121793710Y-104745576D01*
X121854279Y-104754991D01*
X121913879Y-104759068D01*
X121965925Y-104756728D01*
X121998044Y-104749381D01*
X122029153Y-104737554D01*
X122001180Y-104683252D01*
X121982800Y-104650523D01*
X121967815Y-104628931D01*
X121963114Y-104624716D01*
X121953045Y-104610807D01*
X121953020Y-104610061D01*
X121947169Y-104594558D01*
X121931780Y-104563608D01*
X121910098Y-104523710D01*
X121908570Y-104521000D01*
X121886706Y-104481651D01*
X121870840Y-104451823D01*
X121864161Y-104437527D01*
X121864120Y-104437229D01*
X121874725Y-104432946D01*
X121887617Y-104432100D01*
X121906195Y-104442264D01*
X121931783Y-104473562D01*
X121965342Y-104527203D01*
X121970908Y-104536875D01*
X122005140Y-104596820D01*
X122029741Y-104639712D01*
X122047655Y-104670564D01*
X122061828Y-104694390D01*
X122075206Y-104716204D01*
X122090732Y-104741020D01*
X122092133Y-104743250D01*
X122117449Y-104785739D01*
X122145159Y-104835416D01*
X122156879Y-104857550D01*
X122191193Y-104922545D01*
X122215677Y-104965660D01*
X122231043Y-104988126D01*
X122233828Y-104990900D01*
X122243169Y-105004361D01*
X122261010Y-105034392D01*
X122283906Y-105075144D01*
X122289923Y-105086150D01*
X122321865Y-105143619D01*
X122357637Y-105206077D01*
X122386940Y-105255722D01*
X122410513Y-105295909D01*
X122427803Y-105327521D01*
X122435497Y-105344459D01*
X122435620Y-105345296D01*
X122442519Y-105359931D01*
X122460074Y-105387183D01*
X122472218Y-105404323D01*
X122495064Y-105439216D01*
X122523766Y-105488111D01*
X122553169Y-105542118D01*
X122561827Y-105558913D01*
X122586387Y-105605648D01*
X122607780Y-105643342D01*
X122622788Y-105666462D01*
X122626828Y-105670787D01*
X122638689Y-105686692D01*
X122629040Y-105699457D01*
X122614455Y-105702100D01*
X122600693Y-105698898D01*
X122585940Y-105687259D01*
X122568075Y-105664129D01*
X122544973Y-105626455D01*
X122514513Y-105571184D01*
X122486399Y-105517950D01*
X122460777Y-105470230D01*
X122437805Y-105429734D01*
X122421165Y-105402867D01*
X122417047Y-105397300D01*
X122408701Y-105386429D01*
X122397793Y-105369702D01*
X122382472Y-105343906D01*
X122360888Y-105305828D01*
X122331188Y-105252255D01*
X122291523Y-105179973D01*
X122285354Y-105168700D01*
X122262546Y-105127825D01*
X122244138Y-105096339D01*
X122233711Y-105080340D01*
X122233133Y-105079720D01*
X122221231Y-105063283D01*
X122202038Y-105031349D01*
X122179624Y-104991139D01*
X122158057Y-104949876D01*
X122146153Y-104925335D01*
X122124098Y-104885823D01*
X122099764Y-104865556D01*
X122066252Y-104861684D01*
X122016663Y-104871355D01*
X122015978Y-104871532D01*
X121906284Y-104887139D01*
X121795424Y-104878385D01*
X121687482Y-104845763D01*
X121648022Y-104827183D01*
X121598057Y-104801139D01*
X121567523Y-104854744D01*
X121521145Y-104936026D01*
X121485673Y-104997805D01*
X121459544Y-105042707D01*
X121441196Y-105073358D01*
X121429064Y-105092384D01*
X121421587Y-105102412D01*
X121418325Y-105105458D01*
X121406414Y-105121150D01*
X121395174Y-105143558D01*
X121381926Y-105170678D01*
X121360424Y-105210573D01*
X121337263Y-105251250D01*
X121313488Y-105292382D01*
X121294278Y-105326508D01*
X121283927Y-105345974D01*
X121273415Y-105365045D01*
X121253322Y-105399150D01*
X121227507Y-105441767D01*
X121220394Y-105453340D01*
X121194918Y-105496562D01*
X121175751Y-105532700D01*
X121166150Y-105555493D01*
X121165620Y-105558640D01*
X121158890Y-105573820D01*
X121154669Y-105575100D01*
X121143651Y-105585627D01*
X121126790Y-105612763D01*
X121113571Y-105638600D01*
X121092464Y-105677494D01*
X121073727Y-105696992D01*
X121053739Y-105702100D01*
X121024055Y-105702100D01*
X121065367Y-105629075D01*
X121093110Y-105580803D01*
X121126988Y-105522940D01*
X121159914Y-105467583D01*
X121161549Y-105464863D01*
X121186784Y-105421394D01*
X121205895Y-105385558D01*
X121215739Y-105363352D01*
X121216420Y-105360088D01*
X121225560Y-105347046D01*
X121229120Y-105346500D01*
X121241455Y-105337244D01*
X121241820Y-105334358D01*
X121247885Y-105317713D01*
X121263646Y-105286738D01*
X121281694Y-105254983D01*
X121321353Y-105187766D01*
X121350500Y-105137448D01*
X121371847Y-105099248D01*
X121388111Y-105068382D01*
X121391952Y-105060750D01*
X121413467Y-105022076D01*
X121436967Y-104985231D01*
X121461973Y-104946440D01*
X121483517Y-104909031D01*
X121504131Y-104871787D01*
X121528317Y-104830301D01*
X121532280Y-104823728D01*
X121560526Y-104777206D01*
X121505317Y-104715044D01*
X121452346Y-104650819D01*
X121415166Y-104593270D01*
X121389026Y-104534132D01*
X121375059Y-104488520D01*
X121356655Y-104373767D01*
X121363450Y-104262059D01*
X121380026Y-104195159D01*
X121426123Y-104087036D01*
X121488467Y-103998694D01*
X121680962Y-103998694D01*
X121684394Y-104012577D01*
X121697465Y-104043331D01*
X121717483Y-104085713D01*
X121741753Y-104134477D01*
X121767582Y-104184380D01*
X121792275Y-104230176D01*
X121813140Y-104266623D01*
X121827481Y-104288475D01*
X121831827Y-104292400D01*
X121839757Y-104282346D01*
X121857282Y-104255649D01*
X121881023Y-104217502D01*
X121888062Y-104205911D01*
X121912693Y-104163425D01*
X121931076Y-104128439D01*
X121939961Y-104107231D01*
X121940320Y-104104942D01*
X121949733Y-104085700D01*
X121956195Y-104080306D01*
X121969594Y-104065030D01*
X121988792Y-104036262D01*
X122008587Y-104002761D01*
X122023779Y-103973287D01*
X122029220Y-103957298D01*
X122028008Y-103954095D01*
X122021366Y-103951749D01*
X122004783Y-103949816D01*
X121973750Y-103947850D01*
X121923755Y-103945404D01*
X121895870Y-103944120D01*
X121849750Y-103943102D01*
X121813391Y-103944309D01*
X121794475Y-103947477D01*
X121794270Y-103947593D01*
X121771544Y-103956830D01*
X121768870Y-103957406D01*
X121738270Y-103966473D01*
X121706261Y-103980806D01*
X121684062Y-103995134D01*
X121680962Y-103998694D01*
X121488467Y-103998694D01*
X121489981Y-103996549D01*
X121572987Y-103922114D01*
X121668285Y-103866052D01*
X121726835Y-103840301D01*
X121776993Y-103825279D01*
X121831520Y-103817652D01*
X121860942Y-103815742D01*
X121910321Y-103815800D01*
G37*
X121910321Y-103815800D02*
X121963420Y-103819910D01*
X122014204Y-103827053D01*
X122056638Y-103836215D01*
X122084686Y-103846379D01*
X122092720Y-103854777D01*
X122086790Y-103869142D01*
X122076845Y-103886559D01*
X122067440Y-103908280D01*
X122075802Y-103921335D01*
X122078105Y-103922840D01*
X122084909Y-103933181D01*
X122081534Y-103953049D01*
X122066685Y-103987116D01*
X122052705Y-104014461D01*
X122030237Y-104056267D01*
X122011368Y-104089666D01*
X122000001Y-104107762D01*
X121999665Y-104108183D01*
X121989172Y-104124004D01*
X121969199Y-104156558D01*
X121942948Y-104200566D01*
X121922614Y-104235250D01*
X121882210Y-104299329D01*
X121849316Y-104339589D01*
X121823508Y-104356339D01*
X121804362Y-104349891D01*
X121793876Y-104329260D01*
X121783688Y-104306628D01*
X121763524Y-104268572D01*
X121736747Y-104221287D01*
X121718627Y-104190601D01*
X121689723Y-104141712D01*
X121665459Y-104099351D01*
X121649097Y-104069280D01*
X121644310Y-104059230D01*
X121632311Y-104041488D01*
X121615499Y-104043703D01*
X121591150Y-104066943D01*
X121575873Y-104086025D01*
X121548267Y-104124980D01*
X121526489Y-104164023D01*
X121505235Y-104213230D01*
X121495313Y-104239021D01*
X121486155Y-104285051D01*
X121484988Y-104345820D01*
X121491023Y-104412236D01*
X121503467Y-104475206D01*
X121519970Y-104522432D01*
X121545841Y-104570037D01*
X121573585Y-104609833D01*
X121599263Y-104637014D01*
X121618938Y-104646774D01*
X121621473Y-104646332D01*
X121633903Y-104633940D01*
X121655328Y-104604684D01*
X121682099Y-104563729D01*
X121696628Y-104540010D01*
X121731779Y-104485057D01*
X121759193Y-104451077D01*
X121780949Y-104435616D01*
X121786191Y-104434289D01*
X121814883Y-104430128D01*
X121785526Y-104479220D01*
X121763697Y-104515552D01*
X121744946Y-104546480D01*
X121740806Y-104553231D01*
X121703876Y-104615144D01*
X121681014Y-104658554D01*
X121671268Y-104685440D01*
X121672066Y-104696071D01*
X121696017Y-104715039D01*
X121738761Y-104731900D01*
X121793710Y-104745576D01*
X121854279Y-104754991D01*
X121913879Y-104759068D01*
X121965925Y-104756728D01*
X121998044Y-104749381D01*
X122029153Y-104737554D01*
X122001180Y-104683252D01*
X121982800Y-104650523D01*
X121967815Y-104628931D01*
X121963114Y-104624716D01*
X121953045Y-104610807D01*
X121953020Y-104610061D01*
X121947169Y-104594558D01*
X121931780Y-104563608D01*
X121910098Y-104523710D01*
X121908570Y-104521000D01*
X121886706Y-104481651D01*
X121870840Y-104451823D01*
X121864161Y-104437527D01*
X121864120Y-104437229D01*
X121874725Y-104432946D01*
X121887617Y-104432100D01*
X121906195Y-104442264D01*
X121931783Y-104473562D01*
X121965342Y-104527203D01*
X121970908Y-104536875D01*
X122005140Y-104596820D01*
X122029741Y-104639712D01*
X122047655Y-104670564D01*
X122061828Y-104694390D01*
X122075206Y-104716204D01*
X122090732Y-104741020D01*
X122092133Y-104743250D01*
X122117449Y-104785739D01*
X122145159Y-104835416D01*
X122156879Y-104857550D01*
X122191193Y-104922545D01*
X122215677Y-104965660D01*
X122231043Y-104988126D01*
X122233828Y-104990900D01*
X122243169Y-105004361D01*
X122261010Y-105034392D01*
X122283906Y-105075144D01*
X122289923Y-105086150D01*
X122321865Y-105143619D01*
X122357637Y-105206077D01*
X122386940Y-105255722D01*
X122410513Y-105295909D01*
X122427803Y-105327521D01*
X122435497Y-105344459D01*
X122435620Y-105345296D01*
X122442519Y-105359931D01*
X122460074Y-105387183D01*
X122472218Y-105404323D01*
X122495064Y-105439216D01*
X122523766Y-105488111D01*
X122553169Y-105542118D01*
X122561827Y-105558913D01*
X122586387Y-105605648D01*
X122607780Y-105643342D01*
X122622788Y-105666462D01*
X122626828Y-105670787D01*
X122638689Y-105686692D01*
X122629040Y-105699457D01*
X122614455Y-105702100D01*
X122600693Y-105698898D01*
X122585940Y-105687259D01*
X122568075Y-105664129D01*
X122544973Y-105626455D01*
X122514513Y-105571184D01*
X122486399Y-105517950D01*
X122460777Y-105470230D01*
X122437805Y-105429734D01*
X122421165Y-105402867D01*
X122417047Y-105397300D01*
X122408701Y-105386429D01*
X122397793Y-105369702D01*
X122382472Y-105343906D01*
X122360888Y-105305828D01*
X122331188Y-105252255D01*
X122291523Y-105179973D01*
X122285354Y-105168700D01*
X122262546Y-105127825D01*
X122244138Y-105096339D01*
X122233711Y-105080340D01*
X122233133Y-105079720D01*
X122221231Y-105063283D01*
X122202038Y-105031349D01*
X122179624Y-104991139D01*
X122158057Y-104949876D01*
X122146153Y-104925335D01*
X122124098Y-104885823D01*
X122099764Y-104865556D01*
X122066252Y-104861684D01*
X122016663Y-104871355D01*
X122015978Y-104871532D01*
X121906284Y-104887139D01*
X121795424Y-104878385D01*
X121687482Y-104845763D01*
X121648022Y-104827183D01*
X121598057Y-104801139D01*
X121567523Y-104854744D01*
X121521145Y-104936026D01*
X121485673Y-104997805D01*
X121459544Y-105042707D01*
X121441196Y-105073358D01*
X121429064Y-105092384D01*
X121421587Y-105102412D01*
X121418325Y-105105458D01*
X121406414Y-105121150D01*
X121395174Y-105143558D01*
X121381926Y-105170678D01*
X121360424Y-105210573D01*
X121337263Y-105251250D01*
X121313488Y-105292382D01*
X121294278Y-105326508D01*
X121283927Y-105345974D01*
X121273415Y-105365045D01*
X121253322Y-105399150D01*
X121227507Y-105441767D01*
X121220394Y-105453340D01*
X121194918Y-105496562D01*
X121175751Y-105532700D01*
X121166150Y-105555493D01*
X121165620Y-105558640D01*
X121158890Y-105573820D01*
X121154669Y-105575100D01*
X121143651Y-105585627D01*
X121126790Y-105612763D01*
X121113571Y-105638600D01*
X121092464Y-105677494D01*
X121073727Y-105696992D01*
X121053739Y-105702100D01*
X121024055Y-105702100D01*
X121065367Y-105629075D01*
X121093110Y-105580803D01*
X121126988Y-105522940D01*
X121159914Y-105467583D01*
X121161549Y-105464863D01*
X121186784Y-105421394D01*
X121205895Y-105385558D01*
X121215739Y-105363352D01*
X121216420Y-105360088D01*
X121225560Y-105347046D01*
X121229120Y-105346500D01*
X121241455Y-105337244D01*
X121241820Y-105334358D01*
X121247885Y-105317713D01*
X121263646Y-105286738D01*
X121281694Y-105254983D01*
X121321353Y-105187766D01*
X121350500Y-105137448D01*
X121371847Y-105099248D01*
X121388111Y-105068382D01*
X121391952Y-105060750D01*
X121413467Y-105022076D01*
X121436967Y-104985231D01*
X121461973Y-104946440D01*
X121483517Y-104909031D01*
X121504131Y-104871787D01*
X121528317Y-104830301D01*
X121532280Y-104823728D01*
X121560526Y-104777206D01*
X121505317Y-104715044D01*
X121452346Y-104650819D01*
X121415166Y-104593270D01*
X121389026Y-104534132D01*
X121375059Y-104488520D01*
X121356655Y-104373767D01*
X121363450Y-104262059D01*
X121380026Y-104195159D01*
X121426123Y-104087036D01*
X121488467Y-103998694D01*
X121680962Y-103998694D01*
X121684394Y-104012577D01*
X121697465Y-104043331D01*
X121717483Y-104085713D01*
X121741753Y-104134477D01*
X121767582Y-104184380D01*
X121792275Y-104230176D01*
X121813140Y-104266623D01*
X121827481Y-104288475D01*
X121831827Y-104292400D01*
X121839757Y-104282346D01*
X121857282Y-104255649D01*
X121881023Y-104217502D01*
X121888062Y-104205911D01*
X121912693Y-104163425D01*
X121931076Y-104128439D01*
X121939961Y-104107231D01*
X121940320Y-104104942D01*
X121949733Y-104085700D01*
X121956195Y-104080306D01*
X121969594Y-104065030D01*
X121988792Y-104036262D01*
X122008587Y-104002761D01*
X122023779Y-103973287D01*
X122029220Y-103957298D01*
X122028008Y-103954095D01*
X122021366Y-103951749D01*
X122004783Y-103949816D01*
X121973750Y-103947850D01*
X121923755Y-103945404D01*
X121895870Y-103944120D01*
X121849750Y-103943102D01*
X121813391Y-103944309D01*
X121794475Y-103947477D01*
X121794270Y-103947593D01*
X121771544Y-103956830D01*
X121768870Y-103957406D01*
X121738270Y-103966473D01*
X121706261Y-103980806D01*
X121684062Y-103995134D01*
X121680962Y-103998694D01*
X121488467Y-103998694D01*
X121489981Y-103996549D01*
X121572987Y-103922114D01*
X121668285Y-103866052D01*
X121726835Y-103840301D01*
X121776993Y-103825279D01*
X121831520Y-103817652D01*
X121860942Y-103815742D01*
X121910321Y-103815800D01*
G36*
X120386355Y-103226503D02*
G01*
X120392538Y-103231252D01*
X120397036Y-103242910D01*
X120400117Y-103264538D01*
X120402048Y-103299195D01*
X120403098Y-103349944D01*
X120403532Y-103419846D01*
X120403619Y-103511961D01*
X120403620Y-103516236D01*
X120403620Y-103806873D01*
X120476073Y-103815925D01*
X120574708Y-103840579D01*
X120667232Y-103887257D01*
X120750399Y-103952747D01*
X120820962Y-104033835D01*
X120875674Y-104127308D01*
X120911289Y-104229953D01*
X120915802Y-104251125D01*
X120923685Y-104292400D01*
X120403620Y-104292400D01*
X120403620Y-104764532D01*
X120457595Y-104755529D01*
X120506504Y-104742574D01*
X120559060Y-104720997D01*
X120609761Y-104694084D01*
X120653102Y-104665122D01*
X120683581Y-104637399D01*
X120695694Y-104614200D01*
X120695720Y-104613301D01*
X120705168Y-104593774D01*
X120711720Y-104588306D01*
X120729329Y-104567793D01*
X120751332Y-104528156D01*
X120774977Y-104474645D01*
X120785224Y-104447975D01*
X120796480Y-104422951D01*
X120811649Y-104410827D01*
X120839256Y-104406973D01*
X120861215Y-104406700D01*
X120922028Y-104406700D01*
X120906110Y-104475179D01*
X120869634Y-104578981D01*
X120812203Y-104673626D01*
X120737357Y-104754264D01*
X120663321Y-104807801D01*
X120629665Y-104825094D01*
X120585960Y-104844378D01*
X120539396Y-104862881D01*
X120497165Y-104877834D01*
X120466459Y-104886464D01*
X120456585Y-104887459D01*
X120439884Y-104885405D01*
X120427123Y-104886372D01*
X120417771Y-104893296D01*
X120411300Y-104909118D01*
X120407178Y-104936776D01*
X120404878Y-104979209D01*
X120403869Y-105039357D01*
X120403622Y-105120157D01*
X120403620Y-105181400D01*
X120403541Y-105274749D01*
X120403130Y-105345753D01*
X120402119Y-105397464D01*
X120400244Y-105432935D01*
X120397238Y-105455221D01*
X120392837Y-105467374D01*
X120386775Y-105472449D01*
X120378787Y-105473498D01*
X120378220Y-105473500D01*
X120370071Y-105472594D01*
X120363881Y-105467833D01*
X120359382Y-105456149D01*
X120356304Y-105434476D01*
X120354377Y-105399747D01*
X120353334Y-105348895D01*
X120352904Y-105278854D01*
X120352820Y-105186556D01*
X120352820Y-104894381D01*
X120279795Y-104879099D01*
X120170253Y-104843859D01*
X120070022Y-104787428D01*
X119983086Y-104712868D01*
X119913429Y-104623244D01*
X119888456Y-104578150D01*
X119872483Y-104543826D01*
X119861858Y-104514119D01*
X119855501Y-104482385D01*
X119852327Y-104441977D01*
X119851256Y-104386252D01*
X119851199Y-104361534D01*
X119960289Y-104361534D01*
X119960678Y-104398296D01*
X119967932Y-104422185D01*
X119971265Y-104425407D01*
X119978184Y-104441928D01*
X119976256Y-104451556D01*
X119977387Y-104467598D01*
X119983910Y-104470200D01*
X119992525Y-104477999D01*
X119990416Y-104483633D01*
X119992112Y-104502359D01*
X120007733Y-104534168D01*
X120033876Y-104573566D01*
X120067142Y-104615060D01*
X120081716Y-104631053D01*
X120155801Y-104693981D01*
X120242079Y-104737163D01*
X120251220Y-104740436D01*
X120286240Y-104752798D01*
X120312152Y-104760157D01*
X120330322Y-104759648D01*
X120342115Y-104748407D01*
X120348896Y-104723572D01*
X120352030Y-104682278D01*
X120352885Y-104621660D01*
X120352823Y-104538856D01*
X120352820Y-104527350D01*
X120352820Y-104292400D01*
X120163801Y-104292400D01*
X120090926Y-104292535D01*
X120039494Y-104293324D01*
X120005546Y-104295343D01*
X119985126Y-104299165D01*
X119974274Y-104305367D01*
X119969034Y-104314523D01*
X119967124Y-104320975D01*
X119960289Y-104361534D01*
X119851199Y-104361534D01*
X119851170Y-104349282D01*
X119851506Y-104283708D01*
X119853321Y-104236722D01*
X119855943Y-104216200D01*
X119985064Y-104216200D01*
X120352820Y-104216200D01*
X120352820Y-104077249D01*
X120403620Y-104077249D01*
X120403620Y-104216200D01*
X120587770Y-104216200D01*
X120652878Y-104215754D01*
X120707877Y-104214530D01*
X120748302Y-104212692D01*
X120769689Y-104210408D01*
X120771920Y-104209344D01*
X120764044Y-104183734D01*
X120743491Y-104146461D01*
X120714869Y-104104469D01*
X120682788Y-104064703D01*
X120660877Y-104042036D01*
X120625493Y-104014572D01*
X120580116Y-103986887D01*
X120530770Y-103961740D01*
X120483478Y-103941888D01*
X120444263Y-103930089D01*
X120419148Y-103929100D01*
X120416680Y-103930227D01*
X120410945Y-103946084D01*
X120406622Y-103982924D01*
X120404104Y-104036348D01*
X120403620Y-104077249D01*
X120352820Y-104077249D01*
X120352820Y-103927820D01*
X120290302Y-103944037D01*
X120247194Y-103956944D01*
X120209995Y-103970960D01*
X120198227Y-103976625D01*
X120173781Y-103988183D01*
X120161467Y-103991072D01*
X120147742Y-103998012D01*
X120123087Y-104018473D01*
X120093273Y-104046838D01*
X120064072Y-104077490D01*
X120041254Y-104104811D01*
X120034559Y-104114600D01*
X120014279Y-104151696D01*
X120000200Y-104181275D01*
X119985064Y-104216200D01*
X119855943Y-104216200D01*
X119857820Y-104201517D01*
X119866210Y-104171282D01*
X119879697Y-104139210D01*
X119893426Y-104110781D01*
X119950367Y-104019668D01*
X120023455Y-103941144D01*
X120108321Y-103878520D01*
X120200594Y-103835105D01*
X120283236Y-103815567D01*
X120352820Y-103806873D01*
X120352820Y-103516236D01*
X120352898Y-103423149D01*
X120353314Y-103352401D01*
X120354332Y-103300930D01*
X120356222Y-103265676D01*
X120359251Y-103243577D01*
X120363687Y-103231572D01*
X120369796Y-103226600D01*
X120377846Y-103225600D01*
X120378220Y-103225600D01*
X120386355Y-103226503D01*
G37*
X120386355Y-103226503D02*
X120392538Y-103231252D01*
X120397036Y-103242910D01*
X120400117Y-103264538D01*
X120402048Y-103299195D01*
X120403098Y-103349944D01*
X120403532Y-103419846D01*
X120403619Y-103511961D01*
X120403620Y-103516236D01*
X120403620Y-103806873D01*
X120476073Y-103815925D01*
X120574708Y-103840579D01*
X120667232Y-103887257D01*
X120750399Y-103952747D01*
X120820962Y-104033835D01*
X120875674Y-104127308D01*
X120911289Y-104229953D01*
X120915802Y-104251125D01*
X120923685Y-104292400D01*
X120403620Y-104292400D01*
X120403620Y-104764532D01*
X120457595Y-104755529D01*
X120506504Y-104742574D01*
X120559060Y-104720997D01*
X120609761Y-104694084D01*
X120653102Y-104665122D01*
X120683581Y-104637399D01*
X120695694Y-104614200D01*
X120695720Y-104613301D01*
X120705168Y-104593774D01*
X120711720Y-104588306D01*
X120729329Y-104567793D01*
X120751332Y-104528156D01*
X120774977Y-104474645D01*
X120785224Y-104447975D01*
X120796480Y-104422951D01*
X120811649Y-104410827D01*
X120839256Y-104406973D01*
X120861215Y-104406700D01*
X120922028Y-104406700D01*
X120906110Y-104475179D01*
X120869634Y-104578981D01*
X120812203Y-104673626D01*
X120737357Y-104754264D01*
X120663321Y-104807801D01*
X120629665Y-104825094D01*
X120585960Y-104844378D01*
X120539396Y-104862881D01*
X120497165Y-104877834D01*
X120466459Y-104886464D01*
X120456585Y-104887459D01*
X120439884Y-104885405D01*
X120427123Y-104886372D01*
X120417771Y-104893296D01*
X120411300Y-104909118D01*
X120407178Y-104936776D01*
X120404878Y-104979209D01*
X120403869Y-105039357D01*
X120403622Y-105120157D01*
X120403620Y-105181400D01*
X120403541Y-105274749D01*
X120403130Y-105345753D01*
X120402119Y-105397464D01*
X120400244Y-105432935D01*
X120397238Y-105455221D01*
X120392837Y-105467374D01*
X120386775Y-105472449D01*
X120378787Y-105473498D01*
X120378220Y-105473500D01*
X120370071Y-105472594D01*
X120363881Y-105467833D01*
X120359382Y-105456149D01*
X120356304Y-105434476D01*
X120354377Y-105399747D01*
X120353334Y-105348895D01*
X120352904Y-105278854D01*
X120352820Y-105186556D01*
X120352820Y-104894381D01*
X120279795Y-104879099D01*
X120170253Y-104843859D01*
X120070022Y-104787428D01*
X119983086Y-104712868D01*
X119913429Y-104623244D01*
X119888456Y-104578150D01*
X119872483Y-104543826D01*
X119861858Y-104514119D01*
X119855501Y-104482385D01*
X119852327Y-104441977D01*
X119851256Y-104386252D01*
X119851199Y-104361534D01*
X119960289Y-104361534D01*
X119960678Y-104398296D01*
X119967932Y-104422185D01*
X119971265Y-104425407D01*
X119978184Y-104441928D01*
X119976256Y-104451556D01*
X119977387Y-104467598D01*
X119983910Y-104470200D01*
X119992525Y-104477999D01*
X119990416Y-104483633D01*
X119992112Y-104502359D01*
X120007733Y-104534168D01*
X120033876Y-104573566D01*
X120067142Y-104615060D01*
X120081716Y-104631053D01*
X120155801Y-104693981D01*
X120242079Y-104737163D01*
X120251220Y-104740436D01*
X120286240Y-104752798D01*
X120312152Y-104760157D01*
X120330322Y-104759648D01*
X120342115Y-104748407D01*
X120348896Y-104723572D01*
X120352030Y-104682278D01*
X120352885Y-104621660D01*
X120352823Y-104538856D01*
X120352820Y-104527350D01*
X120352820Y-104292400D01*
X120163801Y-104292400D01*
X120090926Y-104292535D01*
X120039494Y-104293324D01*
X120005546Y-104295343D01*
X119985126Y-104299165D01*
X119974274Y-104305367D01*
X119969034Y-104314523D01*
X119967124Y-104320975D01*
X119960289Y-104361534D01*
X119851199Y-104361534D01*
X119851170Y-104349282D01*
X119851506Y-104283708D01*
X119853321Y-104236722D01*
X119855943Y-104216200D01*
X119985064Y-104216200D01*
X120352820Y-104216200D01*
X120352820Y-104077249D01*
X120403620Y-104077249D01*
X120403620Y-104216200D01*
X120587770Y-104216200D01*
X120652878Y-104215754D01*
X120707877Y-104214530D01*
X120748302Y-104212692D01*
X120769689Y-104210408D01*
X120771920Y-104209344D01*
X120764044Y-104183734D01*
X120743491Y-104146461D01*
X120714869Y-104104469D01*
X120682788Y-104064703D01*
X120660877Y-104042036D01*
X120625493Y-104014572D01*
X120580116Y-103986887D01*
X120530770Y-103961740D01*
X120483478Y-103941888D01*
X120444263Y-103930089D01*
X120419148Y-103929100D01*
X120416680Y-103930227D01*
X120410945Y-103946084D01*
X120406622Y-103982924D01*
X120404104Y-104036348D01*
X120403620Y-104077249D01*
X120352820Y-104077249D01*
X120352820Y-103927820D01*
X120290302Y-103944037D01*
X120247194Y-103956944D01*
X120209995Y-103970960D01*
X120198227Y-103976625D01*
X120173781Y-103988183D01*
X120161467Y-103991072D01*
X120147742Y-103998012D01*
X120123087Y-104018473D01*
X120093273Y-104046838D01*
X120064072Y-104077490D01*
X120041254Y-104104811D01*
X120034559Y-104114600D01*
X120014279Y-104151696D01*
X120000200Y-104181275D01*
X119985064Y-104216200D01*
X119855943Y-104216200D01*
X119857820Y-104201517D01*
X119866210Y-104171282D01*
X119879697Y-104139210D01*
X119893426Y-104110781D01*
X119950367Y-104019668D01*
X120023455Y-103941144D01*
X120108321Y-103878520D01*
X120200594Y-103835105D01*
X120283236Y-103815567D01*
X120352820Y-103806873D01*
X120352820Y-103516236D01*
X120352898Y-103423149D01*
X120353314Y-103352401D01*
X120354332Y-103300930D01*
X120356222Y-103265676D01*
X120359251Y-103243577D01*
X120363687Y-103231572D01*
X120369796Y-103226600D01*
X120377846Y-103225600D01*
X120378220Y-103225600D01*
X120386355Y-103226503D01*
G36*
X126231247Y-105044693D02*
G01*
X126263261Y-105047016D01*
X126325277Y-105052776D01*
X126365580Y-105059661D01*
X126387860Y-105068898D01*
X126395802Y-105081710D01*
X126395359Y-105090923D01*
X126381775Y-105105883D01*
X126355754Y-105115971D01*
X126330239Y-105117329D01*
X126321179Y-105113026D01*
X126306191Y-105109110D01*
X126273717Y-105105256D01*
X126242280Y-105102991D01*
X126201058Y-105099795D01*
X126179204Y-105094157D01*
X126170685Y-105083304D01*
X126169420Y-105069456D01*
X126170602Y-105054454D01*
X126177726Y-105046181D01*
X126196153Y-105043354D01*
X126231247Y-105044693D01*
G37*
X126231247Y-105044693D02*
X126263261Y-105047016D01*
X126325277Y-105052776D01*
X126365580Y-105059661D01*
X126387860Y-105068898D01*
X126395802Y-105081710D01*
X126395359Y-105090923D01*
X126381775Y-105105883D01*
X126355754Y-105115971D01*
X126330239Y-105117329D01*
X126321179Y-105113026D01*
X126306191Y-105109110D01*
X126273717Y-105105256D01*
X126242280Y-105102991D01*
X126201058Y-105099795D01*
X126179204Y-105094157D01*
X126170685Y-105083304D01*
X126169420Y-105069456D01*
X126170602Y-105054454D01*
X126177726Y-105046181D01*
X126196153Y-105043354D01*
X126231247Y-105044693D01*
G36*
X123255804Y-101907206D02*
G01*
X123258784Y-101917366D01*
X123249943Y-101939688D01*
X123228371Y-101978579D01*
X123225776Y-101983038D01*
X123205516Y-102017837D01*
X123176521Y-102067699D01*
X123142807Y-102125718D01*
X123111348Y-102179888D01*
X123079728Y-102234219D01*
X123051961Y-102281688D01*
X123030957Y-102317334D01*
X123019626Y-102336199D01*
X123019374Y-102336600D01*
X123008227Y-102355264D01*
X122987816Y-102390339D01*
X122961430Y-102436151D01*
X122942091Y-102469950D01*
X122911472Y-102523512D01*
X122882639Y-102573800D01*
X122859781Y-102613510D01*
X122850983Y-102628700D01*
X122834235Y-102657845D01*
X122808771Y-102702610D01*
X122778298Y-102756460D01*
X122751913Y-102803275D01*
X122720223Y-102858779D01*
X122690370Y-102909588D01*
X122666023Y-102949542D01*
X122652420Y-102970335D01*
X122634734Y-102999118D01*
X122626248Y-103020681D01*
X122626120Y-103022357D01*
X122618815Y-103042203D01*
X122601197Y-103069124D01*
X122600720Y-103069734D01*
X122593999Y-103079286D01*
X122588580Y-103090847D01*
X122584323Y-103107066D01*
X122581088Y-103130590D01*
X122578736Y-103164068D01*
X122577126Y-103210148D01*
X122576120Y-103271478D01*
X122575576Y-103350706D01*
X122575356Y-103450481D01*
X122575320Y-103551162D01*
X122575617Y-103655115D01*
X122576462Y-103750565D01*
X122577785Y-103834653D01*
X122579517Y-103904518D01*
X122581588Y-103957304D01*
X122583930Y-103990149D01*
X122586236Y-104000300D01*
X122602227Y-103994845D01*
X122633963Y-103980504D01*
X122674758Y-103960308D01*
X122677254Y-103959025D01*
X122718747Y-103938855D01*
X122753215Y-103926570D01*
X122789750Y-103920249D01*
X122837442Y-103917973D01*
X122872713Y-103917750D01*
X122931549Y-103918688D01*
X122973969Y-103922687D01*
X123008922Y-103931521D01*
X123045360Y-103946964D01*
X123062213Y-103955317D01*
X123140251Y-104003942D01*
X123202132Y-104064552D01*
X123253546Y-104143036D01*
X123264903Y-104165069D01*
X123305570Y-104247289D01*
X123309386Y-104541289D01*
X123310373Y-104639121D01*
X123310401Y-104714203D01*
X123309358Y-104769171D01*
X123307133Y-104806660D01*
X123303613Y-104829307D01*
X123298688Y-104839748D01*
X123296686Y-104840981D01*
X123274806Y-104843311D01*
X123238506Y-104842642D01*
X123219845Y-104841307D01*
X123159520Y-104835942D01*
X123159472Y-104649896D01*
X123159371Y-104577912D01*
X123158791Y-104528283D01*
X123157253Y-104497965D01*
X123154278Y-104483911D01*
X123149387Y-104483077D01*
X123142100Y-104492418D01*
X123136189Y-104501950D01*
X123085840Y-104562842D01*
X123018665Y-104612739D01*
X122950587Y-104643125D01*
X122911361Y-104653686D01*
X122882338Y-104658166D01*
X122871807Y-104656620D01*
X122868816Y-104643204D01*
X122887447Y-104634411D01*
X122913995Y-104632125D01*
X122958446Y-104623153D01*
X123009314Y-104599695D01*
X123056943Y-104566931D01*
X123083088Y-104541353D01*
X123119719Y-104491814D01*
X123141099Y-104444130D01*
X123151368Y-104387394D01*
X123153472Y-104355900D01*
X123153822Y-104304643D01*
X123147726Y-104266936D01*
X123132794Y-104231253D01*
X123124519Y-104216200D01*
X123104712Y-104185348D01*
X123081180Y-104153871D01*
X123058362Y-104126960D01*
X123040699Y-104109808D01*
X123032632Y-104107605D01*
X123032520Y-104108639D01*
X123022785Y-104106605D01*
X122998415Y-104094853D01*
X122987826Y-104089063D01*
X122944423Y-104071629D01*
X122896185Y-104061579D01*
X122889401Y-104061047D01*
X122844837Y-104062687D01*
X122796686Y-104070633D01*
X122752440Y-104082873D01*
X122719592Y-104097396D01*
X122706155Y-104110224D01*
X122691529Y-104125797D01*
X122684966Y-104127300D01*
X122669208Y-104137843D01*
X122647757Y-104164896D01*
X122624855Y-104201590D01*
X122604743Y-104241057D01*
X122591662Y-104276430D01*
X122590852Y-104279700D01*
X122579819Y-104340529D01*
X122580353Y-104388665D01*
X122593720Y-104434633D01*
X122614613Y-104477115D01*
X122639217Y-104518450D01*
X122662835Y-104551983D01*
X122679116Y-104569345D01*
X122697670Y-104588422D01*
X122702320Y-104600411D01*
X122695118Y-104602201D01*
X122676877Y-104589320D01*
X122652642Y-104566757D01*
X122627457Y-104539500D01*
X122606367Y-104512536D01*
X122596314Y-104495600D01*
X122590528Y-104487152D01*
X122586035Y-104491995D01*
X122582483Y-104512800D01*
X122579519Y-104552241D01*
X122576790Y-104612992D01*
X122575320Y-104654725D01*
X122568970Y-104845601D01*
X122494358Y-104845225D01*
X122453606Y-104843004D01*
X122424508Y-104837635D01*
X122414769Y-104831960D01*
X122413903Y-104817192D01*
X122413203Y-104779358D01*
X122412675Y-104720790D01*
X122412325Y-104643822D01*
X122412158Y-104550787D01*
X122412178Y-104444017D01*
X122412391Y-104325847D01*
X122412801Y-104198608D01*
X122413181Y-104111232D01*
X122413645Y-103979792D01*
X122413759Y-103856274D01*
X122413544Y-103742955D01*
X122413019Y-103642113D01*
X122412205Y-103556024D01*
X122411121Y-103486967D01*
X122409786Y-103437219D01*
X122408220Y-103409056D01*
X122407045Y-103403397D01*
X122397810Y-103413182D01*
X122397520Y-103416352D01*
X122391099Y-103433814D01*
X122374736Y-103463898D01*
X122362920Y-103483027D01*
X122339586Y-103520025D01*
X122320263Y-103551972D01*
X122314464Y-103562150D01*
X122263069Y-103653625D01*
X122218085Y-103728114D01*
X122180512Y-103784144D01*
X122151346Y-103820241D01*
X122131587Y-103834933D01*
X122129467Y-103835200D01*
X122116517Y-103833517D01*
X122113761Y-103825121D01*
X122122182Y-103804986D01*
X122142512Y-103768525D01*
X122171541Y-103717607D01*
X122203449Y-103661052D01*
X122219692Y-103632000D01*
X122249007Y-103580638D01*
X122281256Y-103526066D01*
X122297975Y-103498650D01*
X122338975Y-103432140D01*
X122368534Y-103380907D01*
X122388523Y-103338592D01*
X122400816Y-103298840D01*
X122407282Y-103255292D01*
X122409792Y-103201593D01*
X122410219Y-103131386D01*
X122410220Y-103117363D01*
X122410220Y-102933500D01*
X122492770Y-102933500D01*
X122537118Y-102933974D01*
X122561838Y-102937019D01*
X122572699Y-102945067D01*
X122575472Y-102960553D01*
X122575602Y-102968425D01*
X122575884Y-103003350D01*
X122601040Y-102971600D01*
X122621832Y-102939362D01*
X122633884Y-102911275D01*
X122643025Y-102889092D01*
X122650112Y-102882700D01*
X122660610Y-102872359D01*
X122673674Y-102847775D01*
X122692124Y-102810180D01*
X122712790Y-102775360D01*
X122727720Y-102755700D01*
X122736936Y-102741696D01*
X122753490Y-102712913D01*
X122764831Y-102692200D01*
X122784454Y-102657118D01*
X122812984Y-102607820D01*
X122846076Y-102551761D01*
X122869606Y-102512521D01*
X122899235Y-102462458D01*
X122923217Y-102420013D01*
X122938867Y-102390062D01*
X122943620Y-102377965D01*
X122950904Y-102359814D01*
X122972698Y-102321034D01*
X123008908Y-102261784D01*
X123054631Y-102189706D01*
X123069399Y-102164744D01*
X123090203Y-102127326D01*
X123103993Y-102101650D01*
X123142348Y-102032733D01*
X123177856Y-101975667D01*
X123208363Y-101933525D01*
X123231716Y-101909384D01*
X123241912Y-101904800D01*
X123255804Y-101907206D01*
G37*
X123255804Y-101907206D02*
X123258784Y-101917366D01*
X123249943Y-101939688D01*
X123228371Y-101978579D01*
X123225776Y-101983038D01*
X123205516Y-102017837D01*
X123176521Y-102067699D01*
X123142807Y-102125718D01*
X123111348Y-102179888D01*
X123079728Y-102234219D01*
X123051961Y-102281688D01*
X123030957Y-102317334D01*
X123019626Y-102336199D01*
X123019374Y-102336600D01*
X123008227Y-102355264D01*
X122987816Y-102390339D01*
X122961430Y-102436151D01*
X122942091Y-102469950D01*
X122911472Y-102523512D01*
X122882639Y-102573800D01*
X122859781Y-102613510D01*
X122850983Y-102628700D01*
X122834235Y-102657845D01*
X122808771Y-102702610D01*
X122778298Y-102756460D01*
X122751913Y-102803275D01*
X122720223Y-102858779D01*
X122690370Y-102909588D01*
X122666023Y-102949542D01*
X122652420Y-102970335D01*
X122634734Y-102999118D01*
X122626248Y-103020681D01*
X122626120Y-103022357D01*
X122618815Y-103042203D01*
X122601197Y-103069124D01*
X122600720Y-103069734D01*
X122593999Y-103079286D01*
X122588580Y-103090847D01*
X122584323Y-103107066D01*
X122581088Y-103130590D01*
X122578736Y-103164068D01*
X122577126Y-103210148D01*
X122576120Y-103271478D01*
X122575576Y-103350706D01*
X122575356Y-103450481D01*
X122575320Y-103551162D01*
X122575617Y-103655115D01*
X122576462Y-103750565D01*
X122577785Y-103834653D01*
X122579517Y-103904518D01*
X122581588Y-103957304D01*
X122583930Y-103990149D01*
X122586236Y-104000300D01*
X122602227Y-103994845D01*
X122633963Y-103980504D01*
X122674758Y-103960308D01*
X122677254Y-103959025D01*
X122718747Y-103938855D01*
X122753215Y-103926570D01*
X122789750Y-103920249D01*
X122837442Y-103917973D01*
X122872713Y-103917750D01*
X122931549Y-103918688D01*
X122973969Y-103922687D01*
X123008922Y-103931521D01*
X123045360Y-103946964D01*
X123062213Y-103955317D01*
X123140251Y-104003942D01*
X123202132Y-104064552D01*
X123253546Y-104143036D01*
X123264903Y-104165069D01*
X123305570Y-104247289D01*
X123309386Y-104541289D01*
X123310373Y-104639121D01*
X123310401Y-104714203D01*
X123309358Y-104769171D01*
X123307133Y-104806660D01*
X123303613Y-104829307D01*
X123298688Y-104839748D01*
X123296686Y-104840981D01*
X123274806Y-104843311D01*
X123238506Y-104842642D01*
X123219845Y-104841307D01*
X123159520Y-104835942D01*
X123159472Y-104649896D01*
X123159371Y-104577912D01*
X123158791Y-104528283D01*
X123157253Y-104497965D01*
X123154278Y-104483911D01*
X123149387Y-104483077D01*
X123142100Y-104492418D01*
X123136189Y-104501950D01*
X123085840Y-104562842D01*
X123018665Y-104612739D01*
X122950587Y-104643125D01*
X122911361Y-104653686D01*
X122882338Y-104658166D01*
X122871807Y-104656620D01*
X122868816Y-104643204D01*
X122887447Y-104634411D01*
X122913995Y-104632125D01*
X122958446Y-104623153D01*
X123009314Y-104599695D01*
X123056943Y-104566931D01*
X123083088Y-104541353D01*
X123119719Y-104491814D01*
X123141099Y-104444130D01*
X123151368Y-104387394D01*
X123153472Y-104355900D01*
X123153822Y-104304643D01*
X123147726Y-104266936D01*
X123132794Y-104231253D01*
X123124519Y-104216200D01*
X123104712Y-104185348D01*
X123081180Y-104153871D01*
X123058362Y-104126960D01*
X123040699Y-104109808D01*
X123032632Y-104107605D01*
X123032520Y-104108639D01*
X123022785Y-104106605D01*
X122998415Y-104094853D01*
X122987826Y-104089063D01*
X122944423Y-104071629D01*
X122896185Y-104061579D01*
X122889401Y-104061047D01*
X122844837Y-104062687D01*
X122796686Y-104070633D01*
X122752440Y-104082873D01*
X122719592Y-104097396D01*
X122706155Y-104110224D01*
X122691529Y-104125797D01*
X122684966Y-104127300D01*
X122669208Y-104137843D01*
X122647757Y-104164896D01*
X122624855Y-104201590D01*
X122604743Y-104241057D01*
X122591662Y-104276430D01*
X122590852Y-104279700D01*
X122579819Y-104340529D01*
X122580353Y-104388665D01*
X122593720Y-104434633D01*
X122614613Y-104477115D01*
X122639217Y-104518450D01*
X122662835Y-104551983D01*
X122679116Y-104569345D01*
X122697670Y-104588422D01*
X122702320Y-104600411D01*
X122695118Y-104602201D01*
X122676877Y-104589320D01*
X122652642Y-104566757D01*
X122627457Y-104539500D01*
X122606367Y-104512536D01*
X122596314Y-104495600D01*
X122590528Y-104487152D01*
X122586035Y-104491995D01*
X122582483Y-104512800D01*
X122579519Y-104552241D01*
X122576790Y-104612992D01*
X122575320Y-104654725D01*
X122568970Y-104845601D01*
X122494358Y-104845225D01*
X122453606Y-104843004D01*
X122424508Y-104837635D01*
X122414769Y-104831960D01*
X122413903Y-104817192D01*
X122413203Y-104779358D01*
X122412675Y-104720790D01*
X122412325Y-104643822D01*
X122412158Y-104550787D01*
X122412178Y-104444017D01*
X122412391Y-104325847D01*
X122412801Y-104198608D01*
X122413181Y-104111232D01*
X122413645Y-103979792D01*
X122413759Y-103856274D01*
X122413544Y-103742955D01*
X122413019Y-103642113D01*
X122412205Y-103556024D01*
X122411121Y-103486967D01*
X122409786Y-103437219D01*
X122408220Y-103409056D01*
X122407045Y-103403397D01*
X122397810Y-103413182D01*
X122397520Y-103416352D01*
X122391099Y-103433814D01*
X122374736Y-103463898D01*
X122362920Y-103483027D01*
X122339586Y-103520025D01*
X122320263Y-103551972D01*
X122314464Y-103562150D01*
X122263069Y-103653625D01*
X122218085Y-103728114D01*
X122180512Y-103784144D01*
X122151346Y-103820241D01*
X122131587Y-103834933D01*
X122129467Y-103835200D01*
X122116517Y-103833517D01*
X122113761Y-103825121D01*
X122122182Y-103804986D01*
X122142512Y-103768525D01*
X122171541Y-103717607D01*
X122203449Y-103661052D01*
X122219692Y-103632000D01*
X122249007Y-103580638D01*
X122281256Y-103526066D01*
X122297975Y-103498650D01*
X122338975Y-103432140D01*
X122368534Y-103380907D01*
X122388523Y-103338592D01*
X122400816Y-103298840D01*
X122407282Y-103255292D01*
X122409792Y-103201593D01*
X122410219Y-103131386D01*
X122410220Y-103117363D01*
X122410220Y-102933500D01*
X122492770Y-102933500D01*
X122537118Y-102933974D01*
X122561838Y-102937019D01*
X122572699Y-102945067D01*
X122575472Y-102960553D01*
X122575602Y-102968425D01*
X122575884Y-103003350D01*
X122601040Y-102971600D01*
X122621832Y-102939362D01*
X122633884Y-102911275D01*
X122643025Y-102889092D01*
X122650112Y-102882700D01*
X122660610Y-102872359D01*
X122673674Y-102847775D01*
X122692124Y-102810180D01*
X122712790Y-102775360D01*
X122727720Y-102755700D01*
X122736936Y-102741696D01*
X122753490Y-102712913D01*
X122764831Y-102692200D01*
X122784454Y-102657118D01*
X122812984Y-102607820D01*
X122846076Y-102551761D01*
X122869606Y-102512521D01*
X122899235Y-102462458D01*
X122923217Y-102420013D01*
X122938867Y-102390062D01*
X122943620Y-102377965D01*
X122950904Y-102359814D01*
X122972698Y-102321034D01*
X123008908Y-102261784D01*
X123054631Y-102189706D01*
X123069399Y-102164744D01*
X123090203Y-102127326D01*
X123103993Y-102101650D01*
X123142348Y-102032733D01*
X123177856Y-101975667D01*
X123208363Y-101933525D01*
X123231716Y-101909384D01*
X123241912Y-101904800D01*
X123255804Y-101907206D01*
G36*
X118364168Y-103098961D02*
G01*
X118409999Y-103101328D01*
X118436045Y-103107621D01*
X118445116Y-103119763D01*
X118440019Y-103139677D01*
X118423562Y-103169284D01*
X118416337Y-103181150D01*
X118394281Y-103218913D01*
X118376241Y-103252667D01*
X118372080Y-103261392D01*
X118355592Y-103290978D01*
X118331888Y-103326107D01*
X118327154Y-103332441D01*
X118307308Y-103360080D01*
X118296244Y-103378633D01*
X118295420Y-103381372D01*
X118289453Y-103394794D01*
X118273375Y-103425079D01*
X118249922Y-103467175D01*
X118231920Y-103498650D01*
X118205138Y-103545639D01*
X118183938Y-103584008D01*
X118171048Y-103608749D01*
X118168420Y-103615166D01*
X118161761Y-103628869D01*
X118145406Y-103653996D01*
X118142119Y-103658664D01*
X118125299Y-103684575D01*
X118099830Y-103726550D01*
X118069386Y-103778438D01*
X118042351Y-103825724D01*
X118001952Y-103897069D01*
X117960418Y-103970057D01*
X117920297Y-104040242D01*
X117884137Y-104103183D01*
X117854487Y-104154434D01*
X117833895Y-104189553D01*
X117829337Y-104197150D01*
X117811340Y-104229949D01*
X117800614Y-104252085D01*
X117785473Y-104280251D01*
X117762484Y-104317485D01*
X117751074Y-104334635D01*
X117726156Y-104373640D01*
X117696275Y-104424035D01*
X117669158Y-104472613D01*
X117636738Y-104532703D01*
X117614081Y-104574029D01*
X117599074Y-104600278D01*
X117589602Y-104615141D01*
X117583553Y-104622305D01*
X117583219Y-104622600D01*
X117573844Y-104636068D01*
X117555897Y-104665743D01*
X117533026Y-104705566D01*
X117529830Y-104711266D01*
X117483791Y-104793582D01*
X117336249Y-104794312D01*
X117277640Y-104793738D01*
X117228878Y-104791633D01*
X117195248Y-104788334D01*
X117182156Y-104784442D01*
X117185148Y-104769296D01*
X117198969Y-104738678D01*
X117220839Y-104698565D01*
X117226673Y-104688696D01*
X117253600Y-104642652D01*
X117277048Y-104600535D01*
X117292351Y-104570746D01*
X117293318Y-104568625D01*
X117307508Y-104543885D01*
X117319558Y-104533700D01*
X117329810Y-104523874D01*
X117330220Y-104520168D01*
X117336340Y-104504025D01*
X117352806Y-104471600D01*
X117376770Y-104428316D01*
X117393720Y-104399128D01*
X117420701Y-104352855D01*
X117441987Y-104315222D01*
X117454780Y-104291240D01*
X117457220Y-104285408D01*
X117463556Y-104272088D01*
X117479743Y-104244913D01*
X117492103Y-104225472D01*
X117534278Y-104157615D01*
X117571152Y-104092819D01*
X117598031Y-104039365D01*
X117599873Y-104035225D01*
X117613662Y-104010476D01*
X117625104Y-104000300D01*
X117634115Y-103990085D01*
X117635020Y-103982805D01*
X117643951Y-103959741D01*
X117651129Y-103951940D01*
X117665469Y-103933557D01*
X117685125Y-103900580D01*
X117698754Y-103874382D01*
X117717496Y-103839340D01*
X117732950Y-103815943D01*
X117739795Y-103809997D01*
X117748603Y-103799662D01*
X117749320Y-103793438D01*
X117755605Y-103776470D01*
X117772634Y-103743108D01*
X117797662Y-103698480D01*
X117822345Y-103656888D01*
X117853787Y-103604628D01*
X117881627Y-103557423D01*
X117902349Y-103521289D01*
X117911152Y-103504975D01*
X117927484Y-103473933D01*
X117938903Y-103454200D01*
X117958460Y-103422220D01*
X117985755Y-103376498D01*
X118017431Y-103322781D01*
X118050131Y-103266821D01*
X118080498Y-103214365D01*
X118105175Y-103171164D01*
X118120806Y-103142967D01*
X118122428Y-103139875D01*
X118143672Y-103098600D01*
X118295746Y-103098600D01*
X118364168Y-103098961D01*
G37*
X118364168Y-103098961D02*
X118409999Y-103101328D01*
X118436045Y-103107621D01*
X118445116Y-103119763D01*
X118440019Y-103139677D01*
X118423562Y-103169284D01*
X118416337Y-103181150D01*
X118394281Y-103218913D01*
X118376241Y-103252667D01*
X118372080Y-103261392D01*
X118355592Y-103290978D01*
X118331888Y-103326107D01*
X118327154Y-103332441D01*
X118307308Y-103360080D01*
X118296244Y-103378633D01*
X118295420Y-103381372D01*
X118289453Y-103394794D01*
X118273375Y-103425079D01*
X118249922Y-103467175D01*
X118231920Y-103498650D01*
X118205138Y-103545639D01*
X118183938Y-103584008D01*
X118171048Y-103608749D01*
X118168420Y-103615166D01*
X118161761Y-103628869D01*
X118145406Y-103653996D01*
X118142119Y-103658664D01*
X118125299Y-103684575D01*
X118099830Y-103726550D01*
X118069386Y-103778438D01*
X118042351Y-103825724D01*
X118001952Y-103897069D01*
X117960418Y-103970057D01*
X117920297Y-104040242D01*
X117884137Y-104103183D01*
X117854487Y-104154434D01*
X117833895Y-104189553D01*
X117829337Y-104197150D01*
X117811340Y-104229949D01*
X117800614Y-104252085D01*
X117785473Y-104280251D01*
X117762484Y-104317485D01*
X117751074Y-104334635D01*
X117726156Y-104373640D01*
X117696275Y-104424035D01*
X117669158Y-104472613D01*
X117636738Y-104532703D01*
X117614081Y-104574029D01*
X117599074Y-104600278D01*
X117589602Y-104615141D01*
X117583553Y-104622305D01*
X117583219Y-104622600D01*
X117573844Y-104636068D01*
X117555897Y-104665743D01*
X117533026Y-104705566D01*
X117529830Y-104711266D01*
X117483791Y-104793582D01*
X117336249Y-104794312D01*
X117277640Y-104793738D01*
X117228878Y-104791633D01*
X117195248Y-104788334D01*
X117182156Y-104784442D01*
X117185148Y-104769296D01*
X117198969Y-104738678D01*
X117220839Y-104698565D01*
X117226673Y-104688696D01*
X117253600Y-104642652D01*
X117277048Y-104600535D01*
X117292351Y-104570746D01*
X117293318Y-104568625D01*
X117307508Y-104543885D01*
X117319558Y-104533700D01*
X117329810Y-104523874D01*
X117330220Y-104520168D01*
X117336340Y-104504025D01*
X117352806Y-104471600D01*
X117376770Y-104428316D01*
X117393720Y-104399128D01*
X117420701Y-104352855D01*
X117441987Y-104315222D01*
X117454780Y-104291240D01*
X117457220Y-104285408D01*
X117463556Y-104272088D01*
X117479743Y-104244913D01*
X117492103Y-104225472D01*
X117534278Y-104157615D01*
X117571152Y-104092819D01*
X117598031Y-104039365D01*
X117599873Y-104035225D01*
X117613662Y-104010476D01*
X117625104Y-104000300D01*
X117634115Y-103990085D01*
X117635020Y-103982805D01*
X117643951Y-103959741D01*
X117651129Y-103951940D01*
X117665469Y-103933557D01*
X117685125Y-103900580D01*
X117698754Y-103874382D01*
X117717496Y-103839340D01*
X117732950Y-103815943D01*
X117739795Y-103809997D01*
X117748603Y-103799662D01*
X117749320Y-103793438D01*
X117755605Y-103776470D01*
X117772634Y-103743108D01*
X117797662Y-103698480D01*
X117822345Y-103656888D01*
X117853787Y-103604628D01*
X117881627Y-103557423D01*
X117902349Y-103521289D01*
X117911152Y-103504975D01*
X117927484Y-103473933D01*
X117938903Y-103454200D01*
X117958460Y-103422220D01*
X117985755Y-103376498D01*
X118017431Y-103322781D01*
X118050131Y-103266821D01*
X118080498Y-103214365D01*
X118105175Y-103171164D01*
X118120806Y-103142967D01*
X118122428Y-103139875D01*
X118143672Y-103098600D01*
X118295746Y-103098600D01*
X118364168Y-103098961D01*
G36*
X118421824Y-103390700D02*
G01*
X118423237Y-103418932D01*
X118425568Y-103463255D01*
X118428330Y-103514400D01*
X118428510Y-103517700D01*
X118432460Y-103592150D01*
X118436127Y-103666789D01*
X118439612Y-103744456D01*
X118443017Y-103827991D01*
X118446444Y-103920234D01*
X118449993Y-104024027D01*
X118453768Y-104142208D01*
X118457868Y-104277619D01*
X118462397Y-104433099D01*
X118466785Y-104587675D01*
X118472771Y-104800400D01*
X118444420Y-104798367D01*
X118411033Y-104795299D01*
X118374795Y-104791212D01*
X118333520Y-104786090D01*
X118332662Y-104682120D01*
X118331699Y-104627821D01*
X118329929Y-104578758D01*
X118327704Y-104544154D01*
X118327268Y-104540050D01*
X118325272Y-104514438D01*
X118322748Y-104468815D01*
X118319953Y-104408557D01*
X118317145Y-104339041D01*
X118315687Y-104298750D01*
X118310418Y-104147267D01*
X118305968Y-104019097D01*
X118302337Y-103912167D01*
X118299525Y-103824403D01*
X118297531Y-103753732D01*
X118296356Y-103698080D01*
X118295998Y-103655373D01*
X118296458Y-103623538D01*
X118297735Y-103600501D01*
X118299829Y-103584190D01*
X118302740Y-103572529D01*
X118306467Y-103563447D01*
X118311011Y-103554868D01*
X118315585Y-103546285D01*
X118338277Y-103504787D01*
X118362204Y-103465515D01*
X118365216Y-103460984D01*
X118387530Y-103424968D01*
X118405487Y-103391190D01*
X118405513Y-103391134D01*
X118420357Y-103358950D01*
X118421824Y-103390700D01*
G37*
X118421824Y-103390700D02*
X118423237Y-103418932D01*
X118425568Y-103463255D01*
X118428330Y-103514400D01*
X118428510Y-103517700D01*
X118432460Y-103592150D01*
X118436127Y-103666789D01*
X118439612Y-103744456D01*
X118443017Y-103827991D01*
X118446444Y-103920234D01*
X118449993Y-104024027D01*
X118453768Y-104142208D01*
X118457868Y-104277619D01*
X118462397Y-104433099D01*
X118466785Y-104587675D01*
X118472771Y-104800400D01*
X118444420Y-104798367D01*
X118411033Y-104795299D01*
X118374795Y-104791212D01*
X118333520Y-104786090D01*
X118332662Y-104682120D01*
X118331699Y-104627821D01*
X118329929Y-104578758D01*
X118327704Y-104544154D01*
X118327268Y-104540050D01*
X118325272Y-104514438D01*
X118322748Y-104468815D01*
X118319953Y-104408557D01*
X118317145Y-104339041D01*
X118315687Y-104298750D01*
X118310418Y-104147267D01*
X118305968Y-104019097D01*
X118302337Y-103912167D01*
X118299525Y-103824403D01*
X118297531Y-103753732D01*
X118296356Y-103698080D01*
X118295998Y-103655373D01*
X118296458Y-103623538D01*
X118297735Y-103600501D01*
X118299829Y-103584190D01*
X118302740Y-103572529D01*
X118306467Y-103563447D01*
X118311011Y-103554868D01*
X118315585Y-103546285D01*
X118338277Y-103504787D01*
X118362204Y-103465515D01*
X118365216Y-103460984D01*
X118387530Y-103424968D01*
X118405487Y-103391190D01*
X118405513Y-103391134D01*
X118420357Y-103358950D01*
X118421824Y-103390700D01*
G36*
X119481961Y-103099107D02*
G01*
X119530970Y-103100491D01*
X119564622Y-103102544D01*
X119578061Y-103105059D01*
X119578120Y-103105241D01*
X119571864Y-103119361D01*
X119554070Y-103152727D01*
X119526194Y-103202760D01*
X119489693Y-103266882D01*
X119446025Y-103342515D01*
X119396646Y-103427081D01*
X119385281Y-103446425D01*
X119355988Y-103497054D01*
X119332192Y-103539761D01*
X119316489Y-103569778D01*
X119311420Y-103582043D01*
X119303533Y-103598687D01*
X119295020Y-103608867D01*
X119278420Y-103630639D01*
X119258110Y-103663261D01*
X119253745Y-103671043D01*
X119230316Y-103713455D01*
X119201292Y-103765500D01*
X119169708Y-103821792D01*
X119138604Y-103876943D01*
X119111015Y-103925567D01*
X119089980Y-103962276D01*
X119079105Y-103980768D01*
X119042943Y-104039639D01*
X119016349Y-104083419D01*
X118995532Y-104118623D01*
X118976700Y-104151762D01*
X118956064Y-104189351D01*
X118934684Y-104228900D01*
X118910945Y-104271443D01*
X118887301Y-104311551D01*
X118879448Y-104324150D01*
X118850748Y-104371588D01*
X118816193Y-104433890D01*
X118783605Y-104495600D01*
X118764272Y-104528993D01*
X118746419Y-104554030D01*
X118743850Y-104556832D01*
X118729455Y-104580443D01*
X118727220Y-104591757D01*
X118720538Y-104608074D01*
X118715375Y-104609900D01*
X118702881Y-104620478D01*
X118694585Y-104638475D01*
X118682069Y-104665778D01*
X118660426Y-104702825D01*
X118634996Y-104741478D01*
X118611115Y-104773604D01*
X118594708Y-104790680D01*
X118579175Y-104798478D01*
X118561507Y-104795367D01*
X118548268Y-104789982D01*
X118539560Y-104782238D01*
X118533452Y-104765008D01*
X118529387Y-104734230D01*
X118526804Y-104685840D01*
X118525264Y-104622600D01*
X118523637Y-104559066D01*
X118521264Y-104502662D01*
X118518461Y-104459428D01*
X118515543Y-104435406D01*
X118515472Y-104435110D01*
X118514917Y-104405973D01*
X118521100Y-104390660D01*
X118533604Y-104371569D01*
X118553236Y-104337985D01*
X118571431Y-104305100D01*
X118598263Y-104256342D01*
X118630456Y-104199159D01*
X118657126Y-104152700D01*
X118685190Y-104104329D01*
X118712252Y-104057543D01*
X118732038Y-104023191D01*
X118766593Y-103963184D01*
X118805435Y-103896129D01*
X118846192Y-103826081D01*
X118886489Y-103757093D01*
X118923954Y-103693220D01*
X118956212Y-103638515D01*
X118980890Y-103597033D01*
X118995614Y-103572827D01*
X118996906Y-103570800D01*
X119016718Y-103537612D01*
X119030511Y-103510820D01*
X119041462Y-103489946D01*
X119062492Y-103452786D01*
X119090487Y-103404757D01*
X119119599Y-103355823D01*
X119149809Y-103305016D01*
X119174514Y-103262496D01*
X119191142Y-103232760D01*
X119197120Y-103220345D01*
X119203153Y-103206762D01*
X119218637Y-103178801D01*
X119231952Y-103156267D01*
X119266785Y-103098600D01*
X119422452Y-103098600D01*
X119481961Y-103099107D01*
G37*
X119481961Y-103099107D02*
X119530970Y-103100491D01*
X119564622Y-103102544D01*
X119578061Y-103105059D01*
X119578120Y-103105241D01*
X119571864Y-103119361D01*
X119554070Y-103152727D01*
X119526194Y-103202760D01*
X119489693Y-103266882D01*
X119446025Y-103342515D01*
X119396646Y-103427081D01*
X119385281Y-103446425D01*
X119355988Y-103497054D01*
X119332192Y-103539761D01*
X119316489Y-103569778D01*
X119311420Y-103582043D01*
X119303533Y-103598687D01*
X119295020Y-103608867D01*
X119278420Y-103630639D01*
X119258110Y-103663261D01*
X119253745Y-103671043D01*
X119230316Y-103713455D01*
X119201292Y-103765500D01*
X119169708Y-103821792D01*
X119138604Y-103876943D01*
X119111015Y-103925567D01*
X119089980Y-103962276D01*
X119079105Y-103980768D01*
X119042943Y-104039639D01*
X119016349Y-104083419D01*
X118995532Y-104118623D01*
X118976700Y-104151762D01*
X118956064Y-104189351D01*
X118934684Y-104228900D01*
X118910945Y-104271443D01*
X118887301Y-104311551D01*
X118879448Y-104324150D01*
X118850748Y-104371588D01*
X118816193Y-104433890D01*
X118783605Y-104495600D01*
X118764272Y-104528993D01*
X118746419Y-104554030D01*
X118743850Y-104556832D01*
X118729455Y-104580443D01*
X118727220Y-104591757D01*
X118720538Y-104608074D01*
X118715375Y-104609900D01*
X118702881Y-104620478D01*
X118694585Y-104638475D01*
X118682069Y-104665778D01*
X118660426Y-104702825D01*
X118634996Y-104741478D01*
X118611115Y-104773604D01*
X118594708Y-104790680D01*
X118579175Y-104798478D01*
X118561507Y-104795367D01*
X118548268Y-104789982D01*
X118539560Y-104782238D01*
X118533452Y-104765008D01*
X118529387Y-104734230D01*
X118526804Y-104685840D01*
X118525264Y-104622600D01*
X118523637Y-104559066D01*
X118521264Y-104502662D01*
X118518461Y-104459428D01*
X118515543Y-104435406D01*
X118515472Y-104435110D01*
X118514917Y-104405973D01*
X118521100Y-104390660D01*
X118533604Y-104371569D01*
X118553236Y-104337985D01*
X118571431Y-104305100D01*
X118598263Y-104256342D01*
X118630456Y-104199159D01*
X118657126Y-104152700D01*
X118685190Y-104104329D01*
X118712252Y-104057543D01*
X118732038Y-104023191D01*
X118766593Y-103963184D01*
X118805435Y-103896129D01*
X118846192Y-103826081D01*
X118886489Y-103757093D01*
X118923954Y-103693220D01*
X118956212Y-103638515D01*
X118980890Y-103597033D01*
X118995614Y-103572827D01*
X118996906Y-103570800D01*
X119016718Y-103537612D01*
X119030511Y-103510820D01*
X119041462Y-103489946D01*
X119062492Y-103452786D01*
X119090487Y-103404757D01*
X119119599Y-103355823D01*
X119149809Y-103305016D01*
X119174514Y-103262496D01*
X119191142Y-103232760D01*
X119197120Y-103220345D01*
X119203153Y-103206762D01*
X119218637Y-103178801D01*
X119231952Y-103156267D01*
X119266785Y-103098600D01*
X119422452Y-103098600D01*
X119481961Y-103099107D01*
G36*
X119542460Y-103369143D02*
G01*
X119546952Y-103397252D01*
X119549880Y-103439184D01*
X119550108Y-103445621D01*
X119551495Y-103485406D01*
X119553753Y-103545394D01*
X119556680Y-103620412D01*
X119560073Y-103705286D01*
X119563730Y-103794843D01*
X119565139Y-103828850D01*
X119569422Y-103937140D01*
X119573907Y-104059829D01*
X119578248Y-104186800D01*
X119582099Y-104307940D01*
X119584941Y-104406700D01*
X119587410Y-104492891D01*
X119590025Y-104573656D01*
X119592614Y-104644451D01*
X119595007Y-104700735D01*
X119597035Y-104737965D01*
X119597697Y-104746425D01*
X119598903Y-104778767D01*
X119595946Y-104796890D01*
X119593637Y-104798404D01*
X119576630Y-104795864D01*
X119543438Y-104791600D01*
X119520970Y-104788879D01*
X119483422Y-104783502D01*
X119464490Y-104775458D01*
X119457529Y-104759422D01*
X119456104Y-104736900D01*
X119455036Y-104707892D01*
X119453074Y-104659690D01*
X119450475Y-104598472D01*
X119447497Y-104530419D01*
X119446795Y-104514650D01*
X119440804Y-104373120D01*
X119434483Y-104209835D01*
X119427966Y-104028434D01*
X119421388Y-103832559D01*
X119419312Y-103768052D01*
X119413735Y-103592954D01*
X119470527Y-103490281D01*
X119495439Y-103444183D01*
X119514792Y-103406352D01*
X119525807Y-103382321D01*
X119527320Y-103377203D01*
X119536284Y-103361310D01*
X119537275Y-103360645D01*
X119542460Y-103369143D01*
G37*
X119542460Y-103369143D02*
X119546952Y-103397252D01*
X119549880Y-103439184D01*
X119550108Y-103445621D01*
X119551495Y-103485406D01*
X119553753Y-103545394D01*
X119556680Y-103620412D01*
X119560073Y-103705286D01*
X119563730Y-103794843D01*
X119565139Y-103828850D01*
X119569422Y-103937140D01*
X119573907Y-104059829D01*
X119578248Y-104186800D01*
X119582099Y-104307940D01*
X119584941Y-104406700D01*
X119587410Y-104492891D01*
X119590025Y-104573656D01*
X119592614Y-104644451D01*
X119595007Y-104700735D01*
X119597035Y-104737965D01*
X119597697Y-104746425D01*
X119598903Y-104778767D01*
X119595946Y-104796890D01*
X119593637Y-104798404D01*
X119576630Y-104795864D01*
X119543438Y-104791600D01*
X119520970Y-104788879D01*
X119483422Y-104783502D01*
X119464490Y-104775458D01*
X119457529Y-104759422D01*
X119456104Y-104736900D01*
X119455036Y-104707892D01*
X119453074Y-104659690D01*
X119450475Y-104598472D01*
X119447497Y-104530419D01*
X119446795Y-104514650D01*
X119440804Y-104373120D01*
X119434483Y-104209835D01*
X119427966Y-104028434D01*
X119421388Y-103832559D01*
X119419312Y-103768052D01*
X119413735Y-103592954D01*
X119470527Y-103490281D01*
X119495439Y-103444183D01*
X119514792Y-103406352D01*
X119525807Y-103382321D01*
X119527320Y-103377203D01*
X119536284Y-103361310D01*
X119537275Y-103360645D01*
X119542460Y-103369143D01*
G36*
X125758675Y-104536612D02*
G01*
X125767761Y-104549520D01*
X125769318Y-104567287D01*
X125762772Y-104596458D01*
X125749929Y-104636540D01*
X125732017Y-104688253D01*
X125718912Y-104720044D01*
X125707841Y-104736233D01*
X125696027Y-104741140D01*
X125683645Y-104739733D01*
X125668820Y-104734556D01*
X125663119Y-104723668D01*
X125666717Y-104701781D01*
X125679791Y-104663607D01*
X125686813Y-104644961D01*
X125700974Y-104604032D01*
X125710195Y-104570339D01*
X125712213Y-104556674D01*
X125720595Y-104531606D01*
X125740467Y-104525794D01*
X125758675Y-104536612D01*
G37*
X125758675Y-104536612D02*
X125767761Y-104549520D01*
X125769318Y-104567287D01*
X125762772Y-104596458D01*
X125749929Y-104636540D01*
X125732017Y-104688253D01*
X125718912Y-104720044D01*
X125707841Y-104736233D01*
X125696027Y-104741140D01*
X125683645Y-104739733D01*
X125668820Y-104734556D01*
X125663119Y-104723668D01*
X125666717Y-104701781D01*
X125679791Y-104663607D01*
X125686813Y-104644961D01*
X125700974Y-104604032D01*
X125710195Y-104570339D01*
X125712213Y-104556674D01*
X125720595Y-104531606D01*
X125740467Y-104525794D01*
X125758675Y-104536612D01*
G36*
X122747949Y-104614945D02*
G01*
X122776419Y-104624239D01*
X122798749Y-104630380D01*
X122821964Y-104640183D01*
X122829320Y-104649376D01*
X122826852Y-104657410D01*
X122815423Y-104658158D01*
X122788993Y-104651169D01*
X122768995Y-104644866D01*
X122741223Y-104632757D01*
X122727918Y-104620665D01*
X122727720Y-104619404D01*
X122737118Y-104612701D01*
X122747949Y-104614945D01*
G37*
X122747949Y-104614945D02*
X122776419Y-104624239D01*
X122798749Y-104630380D01*
X122821964Y-104640183D01*
X122829320Y-104649376D01*
X122826852Y-104657410D01*
X122815423Y-104658158D01*
X122788993Y-104651169D01*
X122768995Y-104644866D01*
X122741223Y-104632757D01*
X122727918Y-104620665D01*
X122727720Y-104619404D01*
X122737118Y-104612701D01*
X122747949Y-104614945D01*
G36*
X118056344Y-103926283D02*
G01*
X118059220Y-103935145D01*
X118052921Y-103954155D01*
X118036155Y-103986781D01*
X118007629Y-104036494D01*
X117996970Y-104054607D01*
X117969718Y-104100987D01*
X117945090Y-104143274D01*
X117927978Y-104173063D01*
X117926742Y-104175257D01*
X117912063Y-104201092D01*
X117891613Y-104236736D01*
X117869353Y-104275328D01*
X117849245Y-104310011D01*
X117835252Y-104333925D01*
X117831328Y-104340423D01*
X117818619Y-104345381D01*
X117802570Y-104349077D01*
X117783564Y-104348692D01*
X117783401Y-104333761D01*
X117783732Y-104332804D01*
X117798533Y-104304126D01*
X117806952Y-104292400D01*
X117821587Y-104270859D01*
X117842384Y-104235943D01*
X117856887Y-104209850D01*
X117884586Y-104159419D01*
X117915271Y-104104836D01*
X117927871Y-104082850D01*
X117950493Y-104043106D01*
X117969350Y-104008894D01*
X117977171Y-103993950D01*
X118004515Y-103950457D01*
X118032418Y-103927162D01*
X118045585Y-103924100D01*
X118056344Y-103926283D01*
G37*
X118056344Y-103926283D02*
X118059220Y-103935145D01*
X118052921Y-103954155D01*
X118036155Y-103986781D01*
X118007629Y-104036494D01*
X117996970Y-104054607D01*
X117969718Y-104100987D01*
X117945090Y-104143274D01*
X117927978Y-104173063D01*
X117926742Y-104175257D01*
X117912063Y-104201092D01*
X117891613Y-104236736D01*
X117869353Y-104275328D01*
X117849245Y-104310011D01*
X117835252Y-104333925D01*
X117831328Y-104340423D01*
X117818619Y-104345381D01*
X117802570Y-104349077D01*
X117783564Y-104348692D01*
X117783401Y-104333761D01*
X117783732Y-104332804D01*
X117798533Y-104304126D01*
X117806952Y-104292400D01*
X117821587Y-104270859D01*
X117842384Y-104235943D01*
X117856887Y-104209850D01*
X117884586Y-104159419D01*
X117915271Y-104104836D01*
X117927871Y-104082850D01*
X117950493Y-104043106D01*
X117969350Y-104008894D01*
X117977171Y-103993950D01*
X118004515Y-103950457D01*
X118032418Y-103927162D01*
X118045585Y-103924100D01*
X118056344Y-103926283D01*
G36*
X119165529Y-103974647D02*
G01*
X119146519Y-104007327D01*
X119135099Y-104031913D01*
X119133620Y-104038147D01*
X119124728Y-104050689D01*
X119121775Y-104051100D01*
X119109264Y-104061674D01*
X119100934Y-104079675D01*
X119091417Y-104100347D01*
X119072162Y-104136204D01*
X119046583Y-104181433D01*
X119018095Y-104230223D01*
X118990111Y-104276762D01*
X118966048Y-104315240D01*
X118949320Y-104339845D01*
X118945155Y-104344787D01*
X118927167Y-104348550D01*
X118921608Y-104347141D01*
X118912765Y-104332636D01*
X118919841Y-104306276D01*
X118937072Y-104279700D01*
X118950975Y-104259154D01*
X118972185Y-104224053D01*
X118994737Y-104184450D01*
X119021792Y-104135851D01*
X119048845Y-104087709D01*
X119066039Y-104057450D01*
X119089718Y-104015305D01*
X119112176Y-103974028D01*
X119116746Y-103965375D01*
X119141071Y-103933371D01*
X119167881Y-103924100D01*
X119197438Y-103924100D01*
X119165529Y-103974647D01*
G37*
X119165529Y-103974647D02*
X119146519Y-104007327D01*
X119135099Y-104031913D01*
X119133620Y-104038147D01*
X119124728Y-104050689D01*
X119121775Y-104051100D01*
X119109264Y-104061674D01*
X119100934Y-104079675D01*
X119091417Y-104100347D01*
X119072162Y-104136204D01*
X119046583Y-104181433D01*
X119018095Y-104230223D01*
X118990111Y-104276762D01*
X118966048Y-104315240D01*
X118949320Y-104339845D01*
X118945155Y-104344787D01*
X118927167Y-104348550D01*
X118921608Y-104347141D01*
X118912765Y-104332636D01*
X118919841Y-104306276D01*
X118937072Y-104279700D01*
X118950975Y-104259154D01*
X118972185Y-104224053D01*
X118994737Y-104184450D01*
X119021792Y-104135851D01*
X119048845Y-104087709D01*
X119066039Y-104057450D01*
X119089718Y-104015305D01*
X119112176Y-103974028D01*
X119116746Y-103965375D01*
X119141071Y-103933371D01*
X119167881Y-103924100D01*
X119197438Y-103924100D01*
X119165529Y-103974647D01*
G36*
X119209659Y-101951289D02*
G01*
X119183437Y-101995793D01*
X119156531Y-102042938D01*
X119152126Y-102050850D01*
X119130343Y-102089307D01*
X119102188Y-102137853D01*
X119078582Y-102177850D01*
X119048789Y-102228917D01*
X119018462Y-102282602D01*
X118999393Y-102317550D01*
X118976960Y-102357187D01*
X118955941Y-102390178D01*
X118946053Y-102403275D01*
X118934815Y-102420118D01*
X118936769Y-102425500D01*
X118937721Y-102433261D01*
X118927461Y-102447725D01*
X118916018Y-102464497D01*
X118894856Y-102498819D01*
X118866647Y-102546069D01*
X118834065Y-102601625D01*
X118799781Y-102660865D01*
X118766468Y-102719167D01*
X118736800Y-102771908D01*
X118713448Y-102814467D01*
X118699086Y-102842222D01*
X118697974Y-102844600D01*
X118687198Y-102864250D01*
X118666899Y-102898301D01*
X118641252Y-102939764D01*
X118638396Y-102944300D01*
X118613992Y-102983527D01*
X118595980Y-103013513D01*
X118587714Y-103028651D01*
X118587520Y-103029344D01*
X118581156Y-103042228D01*
X118563071Y-103074202D01*
X118534769Y-103122672D01*
X118497755Y-103185044D01*
X118477283Y-103219250D01*
X118460378Y-103248977D01*
X118442257Y-103282750D01*
X118420442Y-103321769D01*
X118397612Y-103358950D01*
X118374146Y-103397671D01*
X118351256Y-103439437D01*
X118350204Y-103441500D01*
X118335635Y-103468227D01*
X118310924Y-103511465D01*
X118279094Y-103566003D01*
X118243172Y-103626630D01*
X118228988Y-103650330D01*
X118194588Y-103708284D01*
X118165411Y-103758674D01*
X118143742Y-103797450D01*
X118131869Y-103820566D01*
X118130320Y-103824955D01*
X118119607Y-103833139D01*
X118103561Y-103835200D01*
X118084140Y-103829742D01*
X118084284Y-103815701D01*
X118093717Y-103796797D01*
X118112954Y-103761925D01*
X118138744Y-103716902D01*
X118155493Y-103688312D01*
X118182622Y-103641303D01*
X118204006Y-103602201D01*
X118216819Y-103576287D01*
X118219220Y-103569168D01*
X118227895Y-103554105D01*
X118228745Y-103553683D01*
X118239282Y-103541022D01*
X118257157Y-103512319D01*
X118275355Y-103479600D01*
X118301963Y-103431348D01*
X118334620Y-103374704D01*
X118363058Y-103327200D01*
X118393282Y-103276103D01*
X118428536Y-103213815D01*
X118462364Y-103151798D01*
X118470356Y-103136700D01*
X118495620Y-103089538D01*
X118516993Y-103051398D01*
X118531467Y-103027560D01*
X118535472Y-103022400D01*
X118545835Y-103008600D01*
X118565571Y-102977595D01*
X118591720Y-102934385D01*
X118621323Y-102883969D01*
X118651420Y-102831347D01*
X118679050Y-102781519D01*
X118688694Y-102763590D01*
X118733195Y-102681394D01*
X118767137Y-102621978D01*
X118790668Y-102585087D01*
X118796104Y-102577900D01*
X118810432Y-102556826D01*
X118832019Y-102521093D01*
X118857789Y-102476274D01*
X118884669Y-102427944D01*
X118909584Y-102381680D01*
X118929460Y-102343057D01*
X118941223Y-102317648D01*
X118943120Y-102311300D01*
X118951200Y-102298872D01*
X118953743Y-102298500D01*
X118964760Y-102288101D01*
X118982453Y-102261145D01*
X118998594Y-102231825D01*
X119049626Y-102135509D01*
X119096301Y-102053531D01*
X119137368Y-101987821D01*
X119171575Y-101940306D01*
X119197671Y-101912913D01*
X119209495Y-101906839D01*
X119239068Y-101902529D01*
X119209659Y-101951289D01*
G37*
X119209659Y-101951289D02*
X119183437Y-101995793D01*
X119156531Y-102042938D01*
X119152126Y-102050850D01*
X119130343Y-102089307D01*
X119102188Y-102137853D01*
X119078582Y-102177850D01*
X119048789Y-102228917D01*
X119018462Y-102282602D01*
X118999393Y-102317550D01*
X118976960Y-102357187D01*
X118955941Y-102390178D01*
X118946053Y-102403275D01*
X118934815Y-102420118D01*
X118936769Y-102425500D01*
X118937721Y-102433261D01*
X118927461Y-102447725D01*
X118916018Y-102464497D01*
X118894856Y-102498819D01*
X118866647Y-102546069D01*
X118834065Y-102601625D01*
X118799781Y-102660865D01*
X118766468Y-102719167D01*
X118736800Y-102771908D01*
X118713448Y-102814467D01*
X118699086Y-102842222D01*
X118697974Y-102844600D01*
X118687198Y-102864250D01*
X118666899Y-102898301D01*
X118641252Y-102939764D01*
X118638396Y-102944300D01*
X118613992Y-102983527D01*
X118595980Y-103013513D01*
X118587714Y-103028651D01*
X118587520Y-103029344D01*
X118581156Y-103042228D01*
X118563071Y-103074202D01*
X118534769Y-103122672D01*
X118497755Y-103185044D01*
X118477283Y-103219250D01*
X118460378Y-103248977D01*
X118442257Y-103282750D01*
X118420442Y-103321769D01*
X118397612Y-103358950D01*
X118374146Y-103397671D01*
X118351256Y-103439437D01*
X118350204Y-103441500D01*
X118335635Y-103468227D01*
X118310924Y-103511465D01*
X118279094Y-103566003D01*
X118243172Y-103626630D01*
X118228988Y-103650330D01*
X118194588Y-103708284D01*
X118165411Y-103758674D01*
X118143742Y-103797450D01*
X118131869Y-103820566D01*
X118130320Y-103824955D01*
X118119607Y-103833139D01*
X118103561Y-103835200D01*
X118084140Y-103829742D01*
X118084284Y-103815701D01*
X118093717Y-103796797D01*
X118112954Y-103761925D01*
X118138744Y-103716902D01*
X118155493Y-103688312D01*
X118182622Y-103641303D01*
X118204006Y-103602201D01*
X118216819Y-103576287D01*
X118219220Y-103569168D01*
X118227895Y-103554105D01*
X118228745Y-103553683D01*
X118239282Y-103541022D01*
X118257157Y-103512319D01*
X118275355Y-103479600D01*
X118301963Y-103431348D01*
X118334620Y-103374704D01*
X118363058Y-103327200D01*
X118393282Y-103276103D01*
X118428536Y-103213815D01*
X118462364Y-103151798D01*
X118470356Y-103136700D01*
X118495620Y-103089538D01*
X118516993Y-103051398D01*
X118531467Y-103027560D01*
X118535472Y-103022400D01*
X118545835Y-103008600D01*
X118565571Y-102977595D01*
X118591720Y-102934385D01*
X118621323Y-102883969D01*
X118651420Y-102831347D01*
X118679050Y-102781519D01*
X118688694Y-102763590D01*
X118733195Y-102681394D01*
X118767137Y-102621978D01*
X118790668Y-102585087D01*
X118796104Y-102577900D01*
X118810432Y-102556826D01*
X118832019Y-102521093D01*
X118857789Y-102476274D01*
X118884669Y-102427944D01*
X118909584Y-102381680D01*
X118929460Y-102343057D01*
X118941223Y-102317648D01*
X118943120Y-102311300D01*
X118951200Y-102298872D01*
X118953743Y-102298500D01*
X118964760Y-102288101D01*
X118982453Y-102261145D01*
X118998594Y-102231825D01*
X119049626Y-102135509D01*
X119096301Y-102053531D01*
X119137368Y-101987821D01*
X119171575Y-101940306D01*
X119197671Y-101912913D01*
X119209495Y-101906839D01*
X119239068Y-101902529D01*
X119209659Y-101951289D01*
G36*
X120425978Y-101908636D02*
G01*
X120459731Y-101922815D01*
X120483258Y-101951345D01*
X120492683Y-101970518D01*
X120497380Y-101980985D01*
X120502906Y-101992357D01*
X120510724Y-102007193D01*
X120522296Y-102028057D01*
X120539086Y-102057508D01*
X120562557Y-102098109D01*
X120594172Y-102152420D01*
X120635394Y-102223004D01*
X120687686Y-102312421D01*
X120699902Y-102333304D01*
X120740134Y-102402425D01*
X120775618Y-102464053D01*
X120804469Y-102514862D01*
X120824805Y-102551526D01*
X120834743Y-102570719D01*
X120835420Y-102572644D01*
X120842206Y-102586957D01*
X120859015Y-102612738D01*
X120863995Y-102619720D01*
X120895305Y-102667498D01*
X120931941Y-102732344D01*
X120973922Y-102813837D01*
X120995693Y-102853658D01*
X121018041Y-102888982D01*
X121023441Y-102896387D01*
X121046863Y-102931202D01*
X121065969Y-102965250D01*
X121083829Y-102999366D01*
X121109951Y-103046920D01*
X121140604Y-103101373D01*
X121172057Y-103156190D01*
X121200578Y-103204834D01*
X121222435Y-103240770D01*
X121229330Y-103251389D01*
X121249593Y-103283437D01*
X121272947Y-103323331D01*
X121278858Y-103333939D01*
X121301908Y-103375210D01*
X121329543Y-103423770D01*
X121343439Y-103447850D01*
X121372165Y-103498233D01*
X121402482Y-103552779D01*
X121414481Y-103574850D01*
X121438278Y-103617586D01*
X121469169Y-103671057D01*
X121500874Y-103724408D01*
X121503980Y-103729536D01*
X121529272Y-103772018D01*
X121548495Y-103805837D01*
X121558544Y-103825475D01*
X121559320Y-103827961D01*
X121548792Y-103834022D01*
X121537095Y-103835017D01*
X121524971Y-103831040D01*
X121510206Y-103817286D01*
X121490623Y-103790732D01*
X121464043Y-103748355D01*
X121428290Y-103687132D01*
X121419565Y-103671864D01*
X121404906Y-103646252D01*
X121381513Y-103605492D01*
X121353327Y-103556447D01*
X121338344Y-103530400D01*
X121308208Y-103478023D01*
X121279848Y-103428726D01*
X121257677Y-103390180D01*
X121250672Y-103378000D01*
X121235939Y-103352490D01*
X121211106Y-103309618D01*
X121178840Y-103253981D01*
X121141805Y-103190177D01*
X121110743Y-103136700D01*
X121066814Y-103060980D01*
X121014690Y-102970957D01*
X120958833Y-102874350D01*
X120903707Y-102778877D01*
X120857400Y-102698550D01*
X120811166Y-102618401D01*
X120764084Y-102537008D01*
X120719422Y-102460007D01*
X120680453Y-102393037D01*
X120650445Y-102341734D01*
X120647426Y-102336600D01*
X120615131Y-102281276D01*
X120584724Y-102228403D01*
X120560346Y-102185222D01*
X120549359Y-102165150D01*
X120530344Y-102130533D01*
X120503306Y-102082638D01*
X120473115Y-102030067D01*
X120463051Y-102012750D01*
X120403808Y-101911150D01*
X120403714Y-102402086D01*
X120403660Y-102526539D01*
X120403469Y-102627919D01*
X120403020Y-102708549D01*
X120402191Y-102770755D01*
X120400860Y-102816863D01*
X120398906Y-102849198D01*
X120396206Y-102870086D01*
X120392640Y-102881851D01*
X120388085Y-102886820D01*
X120382421Y-102887317D01*
X120378371Y-102886419D01*
X120371882Y-102883958D01*
X120366588Y-102878691D01*
X120362346Y-102868196D01*
X120359012Y-102850051D01*
X120356445Y-102821834D01*
X120354501Y-102781122D01*
X120353037Y-102725494D01*
X120351910Y-102652527D01*
X120350978Y-102559799D01*
X120350098Y-102444889D01*
X120349796Y-102401947D01*
X120346470Y-101924077D01*
X120295670Y-102016717D01*
X120261217Y-102079398D01*
X120235981Y-102124748D01*
X120217042Y-102157748D01*
X120201481Y-102183380D01*
X120186376Y-102206626D01*
X120171584Y-102228423D01*
X120151281Y-102259701D01*
X120138804Y-102282118D01*
X120136920Y-102287688D01*
X120130808Y-102301320D01*
X120114110Y-102332332D01*
X120089278Y-102376309D01*
X120058766Y-102428834D01*
X120054370Y-102436298D01*
X120023318Y-102489413D01*
X119997601Y-102534325D01*
X119979662Y-102566698D01*
X119971945Y-102582196D01*
X119971820Y-102582771D01*
X119965294Y-102596125D01*
X119948557Y-102623303D01*
X119934361Y-102644830D01*
X119907530Y-102686898D01*
X119876721Y-102738532D01*
X119854986Y-102777018D01*
X119815643Y-102848311D01*
X119772968Y-102924534D01*
X119733166Y-102994637D01*
X119717176Y-103022400D01*
X119701686Y-103047522D01*
X119692161Y-103060500D01*
X119682107Y-103075539D01*
X119669671Y-103098600D01*
X119654261Y-103127528D01*
X119631887Y-103167440D01*
X119616637Y-103193850D01*
X119592220Y-103236714D01*
X119570285Y-103277099D01*
X119560906Y-103295450D01*
X119539361Y-103333813D01*
X119518113Y-103365300D01*
X119500067Y-103392771D01*
X119476168Y-103434088D01*
X119451955Y-103479600D01*
X119429028Y-103523167D01*
X119408547Y-103559387D01*
X119394792Y-103580706D01*
X119394396Y-103581200D01*
X119376378Y-103607721D01*
X119370360Y-103619300D01*
X119357795Y-103642599D01*
X119338537Y-103673685D01*
X119336717Y-103676450D01*
X119314773Y-103713662D01*
X119297515Y-103749475D01*
X119284574Y-103774339D01*
X119273558Y-103784400D01*
X119262717Y-103794952D01*
X119256940Y-103809800D01*
X119244826Y-103825148D01*
X119224099Y-103835164D01*
X119204850Y-103836773D01*
X119197120Y-103828015D01*
X119203296Y-103809896D01*
X119217070Y-103783942D01*
X119231308Y-103763006D01*
X119235415Y-103759000D01*
X119246452Y-103744752D01*
X119263651Y-103716251D01*
X119271543Y-103701850D01*
X119296518Y-103656761D01*
X119324118Y-103609455D01*
X119329700Y-103600250D01*
X119349192Y-103567263D01*
X119376550Y-103519461D01*
X119407507Y-103464342D01*
X119427002Y-103429124D01*
X119459431Y-103371159D01*
X119492443Y-103313810D01*
X119521147Y-103265509D01*
X119533885Y-103244974D01*
X119557747Y-103205152D01*
X119576365Y-103169760D01*
X119583559Y-103152575D01*
X119594898Y-103130422D01*
X119604375Y-103124000D01*
X119615538Y-103114046D01*
X119616220Y-103109065D01*
X119622453Y-103094001D01*
X119639830Y-103060758D01*
X119666369Y-103012900D01*
X119700087Y-102953995D01*
X119739000Y-102887606D01*
X119745123Y-102877290D01*
X119796025Y-102791190D01*
X119845587Y-102706481D01*
X119892164Y-102626058D01*
X119934107Y-102552819D01*
X119969768Y-102489659D01*
X119997502Y-102439476D01*
X120015661Y-102405165D01*
X120022596Y-102389624D01*
X120022620Y-102389351D01*
X120029961Y-102375860D01*
X120040192Y-102363000D01*
X120053388Y-102344280D01*
X120075790Y-102308784D01*
X120104106Y-102261845D01*
X120130934Y-102215950D01*
X120164624Y-102157492D01*
X120197825Y-102099920D01*
X120226057Y-102050996D01*
X120240814Y-102025450D01*
X120263857Y-101984923D01*
X120283520Y-101949196D01*
X120291811Y-101933375D01*
X120304127Y-101916391D01*
X120324110Y-101907782D01*
X120359379Y-101904927D01*
X120374815Y-101904800D01*
X120425978Y-101908636D01*
G37*
X120425978Y-101908636D02*
X120459731Y-101922815D01*
X120483258Y-101951345D01*
X120492683Y-101970518D01*
X120497380Y-101980985D01*
X120502906Y-101992357D01*
X120510724Y-102007193D01*
X120522296Y-102028057D01*
X120539086Y-102057508D01*
X120562557Y-102098109D01*
X120594172Y-102152420D01*
X120635394Y-102223004D01*
X120687686Y-102312421D01*
X120699902Y-102333304D01*
X120740134Y-102402425D01*
X120775618Y-102464053D01*
X120804469Y-102514862D01*
X120824805Y-102551526D01*
X120834743Y-102570719D01*
X120835420Y-102572644D01*
X120842206Y-102586957D01*
X120859015Y-102612738D01*
X120863995Y-102619720D01*
X120895305Y-102667498D01*
X120931941Y-102732344D01*
X120973922Y-102813837D01*
X120995693Y-102853658D01*
X121018041Y-102888982D01*
X121023441Y-102896387D01*
X121046863Y-102931202D01*
X121065969Y-102965250D01*
X121083829Y-102999366D01*
X121109951Y-103046920D01*
X121140604Y-103101373D01*
X121172057Y-103156190D01*
X121200578Y-103204834D01*
X121222435Y-103240770D01*
X121229330Y-103251389D01*
X121249593Y-103283437D01*
X121272947Y-103323331D01*
X121278858Y-103333939D01*
X121301908Y-103375210D01*
X121329543Y-103423770D01*
X121343439Y-103447850D01*
X121372165Y-103498233D01*
X121402482Y-103552779D01*
X121414481Y-103574850D01*
X121438278Y-103617586D01*
X121469169Y-103671057D01*
X121500874Y-103724408D01*
X121503980Y-103729536D01*
X121529272Y-103772018D01*
X121548495Y-103805837D01*
X121558544Y-103825475D01*
X121559320Y-103827961D01*
X121548792Y-103834022D01*
X121537095Y-103835017D01*
X121524971Y-103831040D01*
X121510206Y-103817286D01*
X121490623Y-103790732D01*
X121464043Y-103748355D01*
X121428290Y-103687132D01*
X121419565Y-103671864D01*
X121404906Y-103646252D01*
X121381513Y-103605492D01*
X121353327Y-103556447D01*
X121338344Y-103530400D01*
X121308208Y-103478023D01*
X121279848Y-103428726D01*
X121257677Y-103390180D01*
X121250672Y-103378000D01*
X121235939Y-103352490D01*
X121211106Y-103309618D01*
X121178840Y-103253981D01*
X121141805Y-103190177D01*
X121110743Y-103136700D01*
X121066814Y-103060980D01*
X121014690Y-102970957D01*
X120958833Y-102874350D01*
X120903707Y-102778877D01*
X120857400Y-102698550D01*
X120811166Y-102618401D01*
X120764084Y-102537008D01*
X120719422Y-102460007D01*
X120680453Y-102393037D01*
X120650445Y-102341734D01*
X120647426Y-102336600D01*
X120615131Y-102281276D01*
X120584724Y-102228403D01*
X120560346Y-102185222D01*
X120549359Y-102165150D01*
X120530344Y-102130533D01*
X120503306Y-102082638D01*
X120473115Y-102030067D01*
X120463051Y-102012750D01*
X120403808Y-101911150D01*
X120403714Y-102402086D01*
X120403660Y-102526539D01*
X120403469Y-102627919D01*
X120403020Y-102708549D01*
X120402191Y-102770755D01*
X120400860Y-102816863D01*
X120398906Y-102849198D01*
X120396206Y-102870086D01*
X120392640Y-102881851D01*
X120388085Y-102886820D01*
X120382421Y-102887317D01*
X120378371Y-102886419D01*
X120371882Y-102883958D01*
X120366588Y-102878691D01*
X120362346Y-102868196D01*
X120359012Y-102850051D01*
X120356445Y-102821834D01*
X120354501Y-102781122D01*
X120353037Y-102725494D01*
X120351910Y-102652527D01*
X120350978Y-102559799D01*
X120350098Y-102444889D01*
X120349796Y-102401947D01*
X120346470Y-101924077D01*
X120295670Y-102016717D01*
X120261217Y-102079398D01*
X120235981Y-102124748D01*
X120217042Y-102157748D01*
X120201481Y-102183380D01*
X120186376Y-102206626D01*
X120171584Y-102228423D01*
X120151281Y-102259701D01*
X120138804Y-102282118D01*
X120136920Y-102287688D01*
X120130808Y-102301320D01*
X120114110Y-102332332D01*
X120089278Y-102376309D01*
X120058766Y-102428834D01*
X120054370Y-102436298D01*
X120023318Y-102489413D01*
X119997601Y-102534325D01*
X119979662Y-102566698D01*
X119971945Y-102582196D01*
X119971820Y-102582771D01*
X119965294Y-102596125D01*
X119948557Y-102623303D01*
X119934361Y-102644830D01*
X119907530Y-102686898D01*
X119876721Y-102738532D01*
X119854986Y-102777018D01*
X119815643Y-102848311D01*
X119772968Y-102924534D01*
X119733166Y-102994637D01*
X119717176Y-103022400D01*
X119701686Y-103047522D01*
X119692161Y-103060500D01*
X119682107Y-103075539D01*
X119669671Y-103098600D01*
X119654261Y-103127528D01*
X119631887Y-103167440D01*
X119616637Y-103193850D01*
X119592220Y-103236714D01*
X119570285Y-103277099D01*
X119560906Y-103295450D01*
X119539361Y-103333813D01*
X119518113Y-103365300D01*
X119500067Y-103392771D01*
X119476168Y-103434088D01*
X119451955Y-103479600D01*
X119429028Y-103523167D01*
X119408547Y-103559387D01*
X119394792Y-103580706D01*
X119394396Y-103581200D01*
X119376378Y-103607721D01*
X119370360Y-103619300D01*
X119357795Y-103642599D01*
X119338537Y-103673685D01*
X119336717Y-103676450D01*
X119314773Y-103713662D01*
X119297515Y-103749475D01*
X119284574Y-103774339D01*
X119273558Y-103784400D01*
X119262717Y-103794952D01*
X119256940Y-103809800D01*
X119244826Y-103825148D01*
X119224099Y-103835164D01*
X119204850Y-103836773D01*
X119197120Y-103828015D01*
X119203296Y-103809896D01*
X119217070Y-103783942D01*
X119231308Y-103763006D01*
X119235415Y-103759000D01*
X119246452Y-103744752D01*
X119263651Y-103716251D01*
X119271543Y-103701850D01*
X119296518Y-103656761D01*
X119324118Y-103609455D01*
X119329700Y-103600250D01*
X119349192Y-103567263D01*
X119376550Y-103519461D01*
X119407507Y-103464342D01*
X119427002Y-103429124D01*
X119459431Y-103371159D01*
X119492443Y-103313810D01*
X119521147Y-103265509D01*
X119533885Y-103244974D01*
X119557747Y-103205152D01*
X119576365Y-103169760D01*
X119583559Y-103152575D01*
X119594898Y-103130422D01*
X119604375Y-103124000D01*
X119615538Y-103114046D01*
X119616220Y-103109065D01*
X119622453Y-103094001D01*
X119639830Y-103060758D01*
X119666369Y-103012900D01*
X119700087Y-102953995D01*
X119739000Y-102887606D01*
X119745123Y-102877290D01*
X119796025Y-102791190D01*
X119845587Y-102706481D01*
X119892164Y-102626058D01*
X119934107Y-102552819D01*
X119969768Y-102489659D01*
X119997502Y-102439476D01*
X120015661Y-102405165D01*
X120022596Y-102389624D01*
X120022620Y-102389351D01*
X120029961Y-102375860D01*
X120040192Y-102363000D01*
X120053388Y-102344280D01*
X120075790Y-102308784D01*
X120104106Y-102261845D01*
X120130934Y-102215950D01*
X120164624Y-102157492D01*
X120197825Y-102099920D01*
X120226057Y-102050996D01*
X120240814Y-102025450D01*
X120263857Y-101984923D01*
X120283520Y-101949196D01*
X120291811Y-101933375D01*
X120304127Y-101916391D01*
X120324110Y-101907782D01*
X120359379Y-101904927D01*
X120374815Y-101904800D01*
X120425978Y-101908636D01*
G36*
X118849986Y-103572733D02*
G01*
X118851506Y-103587805D01*
X118849986Y-103589666D01*
X118842436Y-103587923D01*
X118841520Y-103581200D01*
X118846166Y-103570746D01*
X118849986Y-103572733D01*
G37*
X118849986Y-103572733D02*
X118851506Y-103587805D01*
X118849986Y-103589666D01*
X118842436Y-103587923D01*
X118841520Y-103581200D01*
X118846166Y-103570746D01*
X118849986Y-103572733D01*
G36*
X120390547Y-102935038D02*
G01*
X120397874Y-102942777D01*
X120401507Y-102961402D01*
X120402296Y-102995599D01*
X120401088Y-103050053D01*
X120400904Y-103056295D01*
X120397247Y-103122576D01*
X120390635Y-103164982D01*
X120380620Y-103184912D01*
X120366755Y-103183767D01*
X120361551Y-103179297D01*
X120357740Y-103163528D01*
X120354772Y-103128486D01*
X120353067Y-103080295D01*
X120352820Y-103052033D01*
X120353201Y-102996575D01*
X120355039Y-102961753D01*
X120359372Y-102942807D01*
X120367238Y-102934977D01*
X120378679Y-102933500D01*
X120390547Y-102935038D01*
G37*
X120390547Y-102935038D02*
X120397874Y-102942777D01*
X120401507Y-102961402D01*
X120402296Y-102995599D01*
X120401088Y-103050053D01*
X120400904Y-103056295D01*
X120397247Y-103122576D01*
X120390635Y-103164982D01*
X120380620Y-103184912D01*
X120366755Y-103183767D01*
X120361551Y-103179297D01*
X120357740Y-103163528D01*
X120354772Y-103128486D01*
X120353067Y-103080295D01*
X120352820Y-103052033D01*
X120353201Y-102996575D01*
X120355039Y-102961753D01*
X120359372Y-102942807D01*
X120367238Y-102934977D01*
X120378679Y-102933500D01*
X120390547Y-102935038D01*
D10*
%TO.C,U$1*%
G36*
X166679880Y-103296720D02*
G01*
X166730680Y-103322120D01*
X166832280Y-103347520D01*
X167035480Y-103474520D01*
X167060880Y-103525320D01*
X167060880Y-103550720D01*
X167035480Y-103601520D01*
X167010080Y-103703120D01*
X167010080Y-105735120D01*
X167035480Y-105963720D01*
X167035480Y-106014520D01*
X166984680Y-106192320D01*
X166908480Y-106268520D01*
X166857680Y-106293920D01*
X166832280Y-106293920D01*
X166806880Y-106268520D01*
X166781480Y-106192320D01*
X166756080Y-106141520D01*
X166705280Y-106090720D01*
X166603680Y-106065320D01*
X166248080Y-105887520D01*
X166222680Y-105836720D01*
X166222680Y-105811320D01*
X166248080Y-105811320D01*
X166298880Y-105836720D01*
X166705280Y-105887520D01*
X166730680Y-105887520D01*
X166781480Y-105862120D01*
X166806880Y-105811320D01*
X166806880Y-103601520D01*
X166705280Y-103398320D01*
X166679880Y-103322120D01*
X166679880Y-103296720D01*
G37*
G36*
X167721280Y-102966520D02*
G01*
X167213280Y-103652320D01*
X167213280Y-103677720D01*
X167264080Y-103703120D01*
X168076880Y-102991920D01*
X167721280Y-102966520D01*
G37*
G36*
X167873680Y-102737920D02*
G01*
X168051480Y-102864920D01*
X168127680Y-102941120D01*
X168127680Y-102966520D01*
X168076880Y-102991920D01*
X167848280Y-103017320D01*
X167873680Y-102737920D01*
G37*
G36*
X166451280Y-102331520D02*
G01*
X166654480Y-102356920D01*
X166883080Y-102483920D01*
X167060880Y-102712520D01*
X167086280Y-102864920D01*
X167086280Y-102966520D01*
X166959280Y-103017320D01*
X166883080Y-102839520D01*
X166756080Y-102661720D01*
X166527480Y-102458520D01*
X166425880Y-102382320D01*
X166400480Y-102331520D01*
X166425880Y-102306120D01*
X166451280Y-102331520D01*
G37*
G36*
X167264080Y-101569520D02*
G01*
X167340280Y-101569520D01*
X167518080Y-101671120D01*
X167568880Y-101798120D01*
X167568880Y-101848920D01*
X167543480Y-101899720D01*
X167467280Y-101925120D01*
X167365680Y-102001320D01*
X166908480Y-102509320D01*
X166883080Y-102483920D01*
X167340280Y-101696520D01*
X167314880Y-101671120D01*
X167264080Y-101569520D01*
G37*
G36*
X165790880Y-101620320D02*
G01*
X165765480Y-101569520D01*
X165790880Y-101544120D01*
X165867080Y-101569520D01*
X165917880Y-101620320D01*
X165994080Y-101671120D01*
X166197280Y-101721920D01*
X166324280Y-101721920D01*
X167289480Y-101569520D01*
X167314880Y-101671120D01*
X166248080Y-101950520D01*
X166171880Y-101975920D01*
X166121080Y-101975920D01*
X165917880Y-101798120D01*
X165790880Y-101620320D01*
G37*
G36*
X165663880Y-103042720D02*
G01*
X165689280Y-103042720D01*
X165867080Y-103169720D01*
X165968680Y-103195120D01*
X166019480Y-103195120D01*
X167238680Y-102915720D01*
X167772080Y-102788720D01*
X167873680Y-102737920D01*
X167848280Y-103017320D01*
X167772080Y-102991920D01*
X167568880Y-102966520D01*
X167137080Y-103068120D01*
X166324280Y-103271320D01*
X166146480Y-103347520D01*
X166044880Y-103398320D01*
X165968680Y-103423720D01*
X165867080Y-103398320D01*
X165689280Y-103118920D01*
X165663880Y-103042720D01*
G37*
G36*
X164292280Y-101798120D02*
G01*
X164343080Y-101950520D01*
X164343080Y-104744520D01*
X164546280Y-104668320D01*
X164571680Y-103982520D01*
X164571680Y-101950520D01*
X164571680Y-101823520D01*
X164546280Y-101798120D01*
X164444680Y-101747320D01*
X164292280Y-101798120D01*
G37*
G36*
X163225480Y-104642920D02*
G01*
X163276280Y-104668320D01*
X163327080Y-104719120D01*
X163403280Y-104769920D01*
X163479480Y-104795320D01*
X163530280Y-104795320D01*
X165790880Y-104439720D01*
X165816280Y-104439720D01*
X165790880Y-104490520D01*
X163631880Y-104998520D01*
X163555680Y-105023920D01*
X163504880Y-105023920D01*
X163352480Y-104947720D01*
X163276280Y-104820720D01*
X163250880Y-104769920D01*
X163225480Y-104668320D01*
X163225480Y-104642920D01*
G37*
G36*
X163454080Y-103931720D02*
G01*
X163479480Y-103906320D01*
X163530280Y-103931720D01*
X163581080Y-103982520D01*
X163657280Y-104033320D01*
X163758880Y-104058720D01*
X163784280Y-104058720D01*
X164876480Y-103830120D01*
X165155880Y-103753920D01*
X165409880Y-103804720D01*
X165435280Y-103830120D01*
X165435280Y-103855520D01*
X165384480Y-103906320D01*
X164292280Y-104084120D01*
X163885880Y-104185720D01*
X163733480Y-104236520D01*
X163606480Y-104160320D01*
X163454080Y-103931720D01*
G37*
G36*
X163631880Y-102712520D02*
G01*
X163708080Y-102712520D01*
X165282880Y-102407720D01*
X165308280Y-102306120D01*
X165105080Y-102280720D01*
X163784280Y-102585520D01*
X163631880Y-102585520D01*
X163631880Y-102712520D01*
G37*
G36*
X163708080Y-103398320D02*
G01*
X165206680Y-103169720D01*
X165257480Y-103017320D01*
X163708080Y-103271320D01*
X163708080Y-103398320D01*
G37*
G36*
X165282880Y-101671120D02*
G01*
X165308280Y-101721920D01*
X165257480Y-103017320D01*
X165206680Y-103169720D01*
X165282880Y-103245920D01*
X165333680Y-103245920D01*
X165359080Y-103220520D01*
X165409880Y-103169720D01*
X165460680Y-102966520D01*
X165511480Y-101772720D01*
X165282880Y-101671120D01*
G37*
G36*
X165206680Y-101620320D02*
G01*
X165232080Y-101620320D01*
X165282880Y-101671120D01*
X165511480Y-101772720D01*
X165613080Y-101696520D01*
X165638480Y-101645720D01*
X165613080Y-101544120D01*
X165206680Y-101442520D01*
X165105080Y-101518720D01*
X165206680Y-101620320D01*
G37*
G36*
X163454080Y-101950520D02*
G01*
X165155880Y-101645720D01*
X165206680Y-101620320D01*
X165181280Y-101493320D01*
X163530280Y-101798120D01*
X163454080Y-101950520D01*
G37*
G36*
X163250880Y-101747320D02*
G01*
X163327080Y-101798120D01*
X163377880Y-101899720D01*
X163479480Y-103169720D01*
X163454080Y-103296720D01*
X163530280Y-103499920D01*
X163581080Y-103499920D01*
X163708080Y-103398320D01*
X163708080Y-103296720D01*
X163581080Y-101848920D01*
X163504880Y-101772720D01*
X163276280Y-101721920D01*
X163250880Y-101747320D01*
G37*
D14*
X166756080Y-106039920D02*
X166248080Y-105836720D01*
X166857680Y-106293920D02*
X166756080Y-106039920D01*
X166984680Y-105887520D02*
X166857680Y-106293920D01*
X166984680Y-103576120D02*
X166984680Y-105887520D01*
X167873680Y-102890320D02*
X168026080Y-102966520D01*
X165943280Y-103245920D02*
X167873680Y-102890320D01*
X163708080Y-104134920D02*
X165155880Y-103804720D01*
X163504880Y-103931720D02*
X163708080Y-104134920D01*
X163479480Y-104947720D02*
X165790880Y-104465120D01*
X163225480Y-104668320D02*
X163479480Y-104947720D01*
X164393880Y-101848920D02*
X164444680Y-102966520D01*
X164292280Y-101721920D02*
X164393880Y-101848920D01*
X163606480Y-102661720D02*
X165232080Y-102356920D01*
X165409880Y-101721920D02*
X165359080Y-103093520D01*
D10*
G36*
X159237680Y-101823520D02*
G01*
X159847280Y-101772720D01*
X160380680Y-101696520D01*
X160533080Y-101620320D01*
X160583880Y-101620320D01*
X160761680Y-101721920D01*
X160787080Y-101747320D01*
X160787080Y-101798120D01*
X160710880Y-101848920D01*
X159847280Y-101950520D01*
X159237680Y-101975920D01*
X159110680Y-101950520D01*
X158983680Y-101848920D01*
X158958280Y-101798120D01*
X159059880Y-101772720D01*
X159237680Y-101823520D01*
G37*
G36*
X159745680Y-102534720D02*
G01*
X159745680Y-101391720D01*
X159542480Y-101213920D01*
X159542480Y-101188520D01*
X159821880Y-101213920D01*
X159923480Y-101239320D01*
X159948880Y-101264720D01*
X159999680Y-101366320D01*
X159999680Y-101417120D01*
X159974280Y-101696520D01*
X159974280Y-102560120D01*
X159745680Y-102534720D01*
G37*
G36*
X158653480Y-102839520D02*
G01*
X158501080Y-102788720D01*
X158297880Y-102585520D01*
X158323280Y-102560120D01*
X158704280Y-102636320D01*
X159390080Y-102560120D01*
X160253680Y-102483920D01*
X160888680Y-102407720D01*
X161015680Y-102331520D01*
X161396680Y-102458520D01*
X161447480Y-102534720D01*
X161422080Y-102610920D01*
X160710880Y-102610920D01*
X159872680Y-102661720D01*
X158653480Y-102839520D01*
G37*
G36*
X159847280Y-104363520D02*
G01*
X159923480Y-104363520D01*
X160202880Y-104439720D01*
X160533080Y-104566720D01*
X160888680Y-104769920D01*
X161091880Y-104998520D01*
X161168080Y-105201720D01*
X161142680Y-105303320D01*
X161117280Y-105303320D01*
X160914080Y-105100120D01*
X160558480Y-104795320D01*
X160228280Y-104592120D01*
X159999680Y-104490520D01*
X159847280Y-104439720D01*
X159847280Y-104363520D01*
G37*
G36*
X159593280Y-104287320D02*
G01*
X159644080Y-104363520D01*
X159644080Y-105176320D01*
X159593280Y-105354120D01*
X159694880Y-105608120D01*
X159771080Y-105633520D01*
X159796480Y-105633520D01*
X159847280Y-105481120D01*
X159847280Y-104338120D01*
X159821880Y-104211120D01*
X159771080Y-104160320D01*
X159593280Y-104287320D01*
G37*
G36*
X159618680Y-103880920D02*
G01*
X159644080Y-103931720D01*
X159644080Y-103982520D01*
X158450280Y-104973120D01*
X158424880Y-105023920D01*
X158450280Y-105049320D01*
X159771080Y-104185720D01*
X160025080Y-104033320D01*
X160050480Y-103957120D01*
X159923480Y-103906320D01*
X159898080Y-103830120D01*
X159618680Y-103880920D01*
G37*
G36*
X160329880Y-104515920D02*
G01*
X160660080Y-103957120D01*
X160634680Y-103906320D01*
X160964880Y-104084120D01*
X160380680Y-104515920D01*
X160329880Y-104515920D01*
G37*
G36*
X160609280Y-103804720D02*
G01*
X160634680Y-103855520D01*
X160685480Y-103880920D01*
X160990280Y-103957120D01*
X161015680Y-103982520D01*
X160964880Y-104084120D01*
X160558480Y-103880920D01*
X160507680Y-103779320D01*
X160609280Y-103804720D01*
G37*
G36*
X159288480Y-103880920D02*
G01*
X159390080Y-103906320D01*
X160609280Y-103779320D01*
X160583880Y-103652320D01*
X159339280Y-103779320D01*
X159288480Y-103779320D01*
X159288480Y-103880920D01*
G37*
G36*
X160482280Y-103093520D02*
G01*
X160558480Y-103042720D01*
X160583880Y-103042720D01*
X160812480Y-103195120D01*
X160837880Y-103296720D01*
X160812480Y-103322120D01*
X160710880Y-103753920D01*
X160660080Y-103804720D01*
X160583880Y-103804720D01*
X160482280Y-103753920D01*
X160583880Y-103271320D01*
X160558480Y-103245920D01*
X160482280Y-103093520D01*
G37*
G36*
X159263080Y-103195120D02*
G01*
X159313880Y-103195120D01*
X160533080Y-103093520D01*
X160558480Y-103245920D01*
X159263080Y-103322120D01*
X159263080Y-103195120D01*
G37*
G36*
X159186880Y-104058720D02*
G01*
X159110680Y-104007920D01*
X159034480Y-103271320D01*
X159009080Y-103195120D01*
X158958280Y-103169720D01*
X158958280Y-103144320D01*
X159009080Y-103118920D01*
X159034480Y-103118920D01*
X159161480Y-103169720D01*
X159263080Y-103195120D01*
X159313880Y-103880920D01*
X159288480Y-103982520D01*
X159237680Y-104033320D01*
X159186880Y-104058720D01*
G37*
G36*
X159390080Y-105785920D02*
G01*
X160914080Y-105938320D01*
X161650680Y-105938320D01*
X161701480Y-105989120D01*
X160990280Y-106243120D01*
X159390080Y-105989120D01*
X159390080Y-105785920D01*
G37*
G36*
X157383480Y-105557320D02*
G01*
X157434280Y-105557320D01*
X157535880Y-105531920D01*
X157713680Y-105531920D01*
X159390080Y-105785920D01*
X159390080Y-105989120D01*
X157739080Y-105658920D01*
X157561280Y-105633520D01*
X157383480Y-105658920D01*
X157383480Y-105557320D01*
G37*
G36*
X157281880Y-105531920D02*
G01*
X157256480Y-105557320D01*
X157256480Y-105658920D01*
X157281880Y-105684320D01*
X157332680Y-105684320D01*
X157383480Y-105658920D01*
X157383480Y-105531920D01*
X157281880Y-105531920D01*
G37*
G36*
X157281880Y-105531920D02*
G01*
X157815280Y-104973120D01*
X158120080Y-105125520D01*
X157358080Y-105557320D01*
X157281880Y-105531920D01*
G37*
G36*
X158120080Y-104973120D02*
G01*
X158145480Y-105023920D01*
X158120080Y-105125520D01*
X157815280Y-104973120D01*
X157815280Y-104922320D01*
X158120080Y-104973120D01*
G37*
G36*
X157561280Y-104465120D02*
G01*
X157815280Y-104922320D01*
X158120080Y-104973120D01*
X157662880Y-104465120D01*
X157561280Y-104465120D01*
G37*
G36*
X157561280Y-104414320D02*
G01*
X157561280Y-104465120D01*
X157662880Y-104465120D01*
X157662880Y-104414320D01*
X157561280Y-104414320D01*
G37*
G36*
X157815280Y-103728520D02*
G01*
X157561280Y-104414320D01*
X157662880Y-104414320D01*
X157967680Y-103779320D01*
X157815280Y-103728520D01*
G37*
G36*
X157713680Y-103626920D02*
G01*
X157764480Y-103576120D01*
X157840680Y-103550720D01*
X158043880Y-103652320D01*
X158043880Y-103703120D01*
X157967680Y-103779320D01*
X157815280Y-103728520D01*
X157713680Y-103626920D01*
G37*
G36*
X157281880Y-103830120D02*
G01*
X157358080Y-103830120D01*
X157764480Y-103601520D01*
X157815280Y-103728520D01*
X157459680Y-104033320D01*
X157408880Y-104058720D01*
X157281880Y-103830120D01*
G37*
G36*
X157104080Y-103652320D02*
G01*
X157205680Y-103779320D01*
X157281880Y-103830120D01*
X157408880Y-104058720D01*
X157104080Y-103906320D01*
X157053280Y-103753920D01*
X157078680Y-103652320D01*
X157104080Y-103652320D01*
G37*
G36*
X157662880Y-101950520D02*
G01*
X157764480Y-102204520D01*
X157764480Y-102204521D01*
X157746464Y-102262234D01*
X157690328Y-102284688D01*
X157637480Y-102255320D01*
X157459680Y-102052120D01*
X157281880Y-101874320D01*
X157256480Y-101823520D01*
X157662880Y-101950520D01*
G37*
%TD*%
M02*
